<?xml version="1.0" encoding="UTF-8" standalone="no"?>
<svg
   width="636"
   height="358"
   viewBox="0 0 636 358"
   fill="none"
   version="1.1"
   id="svg24"
   sodipodi:docname="logo.svg"
   inkscape:version="1.1.1 (3bf5ae0d25, 2021-09-20)"
   xmlns:inkscape="http://www.inkscape.org/namespaces/inkscape"
   xmlns:sodipodi="http://sodipodi.sourceforge.net/DTD/sodipodi-0.dtd"
   xmlns="http://www.w3.org/2000/svg"
   xmlns:svg="http://www.w3.org/2000/svg">
  <defs
     id="defs28" />
  <sodipodi:namedview
     id="namedview26"
     pagecolor="#ffffff"
     bordercolor="#666666"
     borderopacity="1.0"
     inkscape:pageshadow="2"
     inkscape:pageopacity="0.0"
     inkscape:pagecheckerboard="0"
     showgrid="false"
     inkscape:zoom="0.57994648"
     inkscape:cx="156.04888"
     inkscape:cy="-334.51362"
     inkscape:window-width="1440"
     inkscape:window-height="2523"
     inkscape:window-x="262"
     inkscape:window-y="0"
     inkscape:window-maximized="1"
     inkscape:current-layer="svg24" />
  <rect
     style="fill:#ffffff;fill-rule:evenodd;stroke-width:1.00142;fill-opacity:1"
     id="rect38"
     width="636"
     height="358"
     x="0"
     y="0" />
  <path
     d="m 200.99983,71.88685 c 0,-29.82339 24.1766,-54 53.99999,-54 h 125.99973 c 29.8233,0 54,24.17661 54,54 v 126 c 0,29.8233 -24.1767,54 -54,54 H 254.99982 c -29.82339,0 -53.99999,-24.1767 -53.99999,-54 z"
     fill="#28282e"
     id="path2"
     style="stroke-width:0.9" />
  <path
     d="m 272.99982,96.34156 32.72733,18.90909 v 32.0004 l -32.72733,-18.9099 z"
     fill="#eaeaea"
     id="path4"
     style="stroke-width:0.9" />
  <path
     d="m 330.45465,62.88685 31.9995,18.1818 -56.727,34.182 -32.72733,-18.90927 z"
     fill="#ffffff"
     id="path6"
     style="stroke-width:0.9" />
  <path
     d="m 362.45505,173.43205 -32.7276,-18.909 v -32.0004 l 32.7276,18.9099 z"
     fill="#eaeaea"
     id="path8"
     style="stroke-width:0.9" />
  <path
     d="m 304.99995,206.88685 -32.00004,-18.1818 56.72754,-34.182 32.7267,18.909 z"
     fill="#ffffff"
     id="path10"
     style="stroke-width:0.9" />
  <path
     d="m 201.01546,321.18145 c -0.35358,10.2537 5.16227,18.315 18.88112,18.315 13.86036,0 18.24471,-8.415 18.24471,-16.7598 0,-6.0813 -2.475,-10.6074 -12.23379,-14.9913 -9.40527,-4.2435 -10.81953,-4.8798 -10.81953,-7.2837 0,-2.475 2.26287,-4.1013 4.59648,-4.1013 4.10157,0 4.52583,3.3237 4.8087,5.0913 h 13.22388 c -0.21213,-12.5874 -10.39527,-16.2648 -17.60832,-16.2648 -8.7687,0 -18.31537,5.5863 -18.31537,16.1235 0,9.8289 9.12232,13.5063 12.79954,14.9913 8.06166,3.3948 10.25388,4.2435 10.25388,7.0011 0,2.4039 -1.90935,5.0211 -5.09157,5.0211 -1.69722,0 -5.44518,-1.0611 -5.44518,-7.1424 z"
     fill="#28282e"
     id="path12"
     style="stroke-width:0.9" />
  <path
     d="m 243.78222,295.08595 h 11.73888 v -8.91 h -11.73888 z m 0,43.4196 h 11.73888 v -39.2472 h -11.73888 z"
     fill="#28282e"
     id="path14"
     style="stroke-width:0.9" />
  <path
     d="m 302.05245,322.94905 c 0.9198,-7.2135 -0.5652,-13.5072 -5.5152,-18.8109 -3.6774,-3.8889 -8.83989,-6.2226 -14.85072,-6.2226 -11.95101,0 -20.57832,10.1124 -20.57832,21.0726 0,11.6685 9.54666,20.7909 20.79045,20.7909 4.03083,0 7.92018,-1.2024 11.17359,-3.5361 3.3228,-2.2626 6.0813,-5.6574 7.9902,-10.0413 h -12.02148 c -1.41426,2.0511 -3.39435,3.6774 -7.14231,3.6774 -4.59648,0 -8.55657,-2.7585 -9.05157,-6.93 z m -29.06397,-8.9109 c 0.28287,-1.8387 2.68722,-6.2226 8.76879,-6.2226 6.08157,0 8.48592,4.3839 8.76879,6.2226 z"
     fill="#28282e"
     id="path16"
     style="stroke-width:0.9" />
  <path
     d="m 307.78185,338.50645 h 11.7387 v -21.3561 c 0,-4.0311 0.9198,-8.2035 6.7185,-8.2035 5.2326,0 6.1524,3.8187 6.1524,8.1324 v 21.4272 h 11.7387 v -24.5385 c 0,-5.3037 -1.3437,-16.0524 -14.5674,-16.0524 -7.0011,0 -9.4761,3.6063 -10.8198,5.5152 v -4.1715 h -10.9611 z"
     fill="#28282e"
     id="path18"
     style="stroke-width:0.9" />
  <path
     d="m 349.85775,338.50645 h 11.7387 v -21.3561 c 0,-4.0311 0.9198,-8.2035 6.7185,-8.2035 5.2326,0 6.1524,3.8187 6.1524,8.1324 v 21.4272 h 11.7387 v -24.5385 c 0,-5.3037 -1.3437,-16.0524 -14.5674,-16.0524 -7.0011,0 -9.4761,3.6063 -10.8198,5.5152 v -4.1715 h -10.9611 z"
     fill="#28282e"
     id="path20"
     style="stroke-width:0.9" />
  <path
     d="m 435.00045,299.25925 h -11.7396 v 4.1715 c -1.5552,-2.4039 -5.1615,-5.5152 -11.5974,-5.5152 -10.4652,0 -19.7289,8.0613 -19.7289,20.9313 0,11.2437 7.2837,21.0033 19.7289,21.0033 4.5972,0 9.4761,-1.7685 11.5974,-5.5872 v 4.2435 h 11.7396 z m -31.3272,19.7289 c 0,-4.455 2.97,-10.1124 9.6876,-10.1124 4.95,0 7.6374,2.7585 8.91,5.4459 0.7785,1.6263 1.1322,3.3939 0.99,5.1615 -0.1413,1.7685 -0.6363,3.4659 -1.6263,5.0211 -1.485,2.4048 -4.0302,4.3848 -8.2026,4.3848 -7.0722,0 -9.7587,-6.2235 -9.7587,-9.8298 z"
     fill="#28282e"
     id="path22"
     style="stroke-width:0.9" />
</svg>
