<?xml version="1.0" encoding="utf-8" ?><svg xmlns="http://www.w3.org/2000/svg" viewBox="0 0 10000000 10000000"><g data-key="Contract"><path d="M0,0 L0,5910000 L10368000,5835000 L12960000,5755833.333333333 L15552000,5446666.666666666 L15638400,5437923.611111109 L15724800,5429180.555555552 L15811200,5420437.499999995 L15897600,5411694.444444438 L15984000,5402951.388888882 L16070400,5394208.333333325 L16156800,5385465.277777768 L16243200,5376722.222222211 L16329600,5367979.166666654 L16416000,5359236.111111097 L16502400,5350493.05555554 L16588800,5341749.999999983 L16675200,5333006.944444426 L16761600,5324263.888888869 L16848000,5315520.8333333125 L16934400,5306777.777777756 L17020800,5298034.722222199 L17107200,5289291.666666642 L17193600,5280548.611111085 L17280000,5271805.555555528 L17366400,5263062.499999971 L17452800,5254319.444444414 L17539200,5245576.388888857 L17625600,5236833.3333333 L17712000,5228090.2777777435 L17798400,5219347.222222187 L17884800,5210604.16666663 L17971200,5201861.111111073 L18057600,5193118.055555516 L18144000,5105208.333333292 L18230400,5096465.277777735 L18316800,5087722.222222178 L18403200,5078979.166666621 L18489600,5070236.111111064 L18576000,5061493.055555508 L18662400,5052749.999999951 L18748800,5044006.944444394 L18835200,5035263.888888837 L18921600,5026520.83333328 L19008000,5017777.777777723 L19094400,5009034.722222166 L19180800,5000291.666666609 L19267200,4991548.611111052 L19353600,4982805.555555495 L19440000,4974062.4999999385 L19526400,4965319.444444382 L19612800,4956576.388888825 L19699200,4947833.333333268 L19785600,4939090.277777711 L19872000,4930347.222222154 L19958400,4921604.166666597 L20044800,4912861.11111104 L20131200,4904118.055555483 L20217600,4895374.999999926 L20304000,4886631.9444443695 L20390400,4877888.888888813 L20476800,4869145.833333256 L20563200,4860402.777777699 L20649600,4851659.722222142 L20736000,4763749.999999918 L20822400,4755006.944444361 L20908800,4746263.888888804 L20995200,4737520.833333247 L21081600,4728777.77777769 L21168000,4720034.722222134 L21254400,4711291.666666577 L21340800,4702548.61111102 L21427200,4693805.555555463 L21513600,4685062.499999906 L21600000,4676319.444444349 L21686400,4667576.388888792 L21772800,4658833.333333235 L21859200,4650090.277777678 L21945600,4641347.222222121 L22032000,4632604.1666665645 L22118400,4623861.111111008 L22204800,4615118.055555451 L22291200,4606374.999999894 L22377600,4597631.944444337 L22464000,4588888.88888878 L22550400,4580145.833333223 L22636800,4571402.777777666 L22723200,4562659.722222109 L22809600,4553916.666666552 L22896000,4545173.6111109955 L22982400,4536430.555555439 L23068800,4527687.499999882 L23155200,4518944.444444325 L23241600,4510201.388888768 L23328000,4422291.666666544 L23414400,4413548.611110987 L23500800,4404805.55555543 L23587200,4396062.499999873 L23673600,4387319.444444316 L23760000,4378576.38888876 L23846400,4369833.333333203 L23932800,4361090.277777646 L24019200,4352347.222222089 L24105600,4343604.166666532 L24192000,4334861.111110975 L24278400,4326118.055555418 L24364800,4317374.999999861 L24451200,4308631.944444304 L24537600,4299888.888888747 L24624000,4291145.8333331905 L24710400,4282402.777777634 L24796800,4273659.722222077 L24883200,4264916.66666652 L24969600,4256173.611110963 L25056000,4247430.555555406 L25142400,4238687.499999849 L25228800,4229944.444444292 L25315200,4221201.388888735 L25401600,4212458.333333178 L25488000,4203715.2777776215 L25574400,4194972.222222065 L25660800,4186229.1666665096 L25747200,4177486.1111109545 L25833600,4168743.0555553995 L25920000,4080833.333333178 L26006400,4072090.277777623 L26092800,4063347.222222068 L26179200,4054604.166666513 L26265600,4045861.111110958 L26352000,4037118.0555554028 L26438400,4028374.9999998477 L26524800,4019631.9444442927 L26611200,4010888.8888887377 L26697600,4002145.8333331826 L26784000,3993402.7777776276 L26870400,3984659.7222220725 L26956800,3975916.6666665175 L27043200,3967173.6111109625 L27129600,3958430.5555554074 L27216000,3949687.4999998524 L27302400,3940944.4444442973 L27388800,3932201.3888887423 L27475200,3923458.3333331873 L27561600,3914715.277777632 L27648000,3905972.222222077 L27734400,3897229.166666522 L27820800,3888486.111110967 L27907200,3879743.055555412 L27993600,3870999.999999857 L28080000,3862256.944444302 L28166400,3853513.888888747 L28252800,3844770.833333192 L28339200,3836027.777777637 L28425600,3827284.722222082 L28512000,3739374.9999998603 L28598400,3730631.9444443053 L28684800,3721888.88888875 L28771200,3713145.833333195 L28857600,3704402.77777764 L28944000,3695659.722222085 L29030400,3686916.66666653 L29116800,3678173.611110975 L29203200,3669430.55555542 L29289600,3660687.499999865 L29376000,3651944.44444431 L29462400,3643201.388888755 L29548800,3634458.3333332 L29635200,3625715.277777645 L29721600,3616972.22222209 L29808000,3608229.1666665347 L29894400,3599486.1111109797 L29980800,3590743.0555554247 L30067200,3581999.9999998696 L30153600,3573256.9444443146 L30240000,3564513.8888887595 L30326400,3555770.8333332045 L30412800,3547027.7777776495 L30499200,3538284.7222220944 L30585600,3529541.6666665394 L30672000,3520798.6111109843 L30758400,3512055.5555554293 L30844800,3503312.4999998743 L30931200,3494569.4444443192 L31017600,3485826.388888764 L31104000,3397916.6666665426 L31190400,3389229.166666543 L31276800,3380541.6666665436 L31363200,3371854.166666544 L31449600,3363166.6666665445 L31536000,3354479.166666545 L31622400,3345791.6666665454 L31708800,3337104.166666546 L31795200,3328416.6666665464 L31881600,3319729.166666547 L31968000,3311041.6666665473 L32054400,3302354.166666548 L32140800,3293666.6666665482 L32227200,3284979.1666665487 L32313600,3276291.666666549 L32400000,3267604.1666665496 L32486400,3258916.66666655 L32572800,3250229.1666665506 L32659200,3241541.666666551 L32745600,3232854.1666665515 L32832000,3224166.666666552 L32918400,3215479.1666665524 L33004800,3206791.666666553 L33091200,3198104.1666665534 L33177600,3189416.666666554 L33264000,3180729.1666665543 L33350400,3172041.6666665548 L33436800,3163354.166666555 L33523200,3154666.6666665557 L33609600,3145979.166666556 L33696000,3058124.99999989 L33782400,3049437.4999998906 L33868800,3040749.999999891 L33955200,3032062.4999998915 L34041600,3023374.999999892 L34128000,3014687.4999998924 L34214400,3005999.999999893 L34300800,2997312.4999998934 L34387200,2988624.999999894 L34473600,2979937.4999998943 L34560000,2971249.9999998948 L34646400,2962562.499999895 L34732800,2953874.9999998957 L34819200,2945187.499999896 L34905600,2936499.9999998966 L34992000,2927812.499999897 L35078400,2919124.9999998976 L35164800,2910437.499999898 L35251200,2901749.9999998985 L35337600,2893062.499999899 L35424000,2884374.9999998994 L35510400,2875687.4999999 L35596800,2866999.9999999003 L35683200,2858312.499999901 L35769600,2849624.9999999013 L35856000,2840937.4999999017 L35942400,2832249.999999902 L36028800,2823562.4999999027 L36115200,2814874.999999903 L36201600,2806187.4999999036 L36288000,2718333.3333332376 L36374400,2709645.833333238 L36460800,2700958.3333332385 L36547200,2692270.833333239 L36633600,2683583.3333332394 L36720000,2674895.83333324 L36806400,2666208.3333332404 L36892800,2657520.833333241 L36979200,2648833.3333332413 L37065600,2640145.8333332418 L37152000,2631458.333333242 L37238400,2622770.8333332427 L37324800,2614083.333333243 L37411200,2605395.8333332436 L37497600,2596708.333333244 L37584000,2588020.8333332445 L37670400,2579333.333333245 L37756800,2570645.8333332455 L37843200,2561958.333333246 L37929600,2553270.8333332464 L38016000,2544583.333333247 L38102400,2535895.8333332473 L38188800,2527208.333333248 L38275200,2518520.8333332483 L38361600,2509833.3333332487 L38448000,2501145.833333249 L38534400,2492458.3333332497 L38620800,2483770.83333325 L38707200,2475083.3333332506 L38793600,2466395.833333251 L38880000,2378541.666666585 L38966400,2369854.1666665855 L39052800,2361166.666666586 L39139200,2352479.1666665864 L39225600,2343791.666666587 L39312000,2335104.1666665873 L39398400,2326416.666666588 L39484800,2317729.1666665883 L39571200,2309041.6666665887 L39657600,2300354.166666589 L39744000,2291666.6666665897 L39830400,2282979.16666659 L39916800,2274291.6666665906 L40003200,2265604.166666591 L40089600,2256916.6666665915 L40176000,2248229.166666592 L40262400,2239541.6666665925 L40348800,2230854.166666593 L40435200,2222166.6666665934 L40521600,2213479.166666594 L40608000,2204791.6666665943 L40694400,2196104.166666595 L40780800,2187416.6666665953 L40867200,2178729.1666665957 L40953600,2170041.666666596 L41040000,2161354.1666665967 L41126400,2152666.666666597 L41212800,2143979.1666665976 L41299200,2135291.666666598 L41385600,2126604.1666665985 L41472000,2038749.9999999315 L41558400,2030062.4999999313 L41644800,2021374.999999931 L41731200,2012687.4999999308 L41817600,2003999.9999999306 L41904000,1995312.4999999304 L41990400,1986624.9999999302 L42076800,1977937.49999993 L42163200,1969249.9999999297 L42249600,1960562.4999999295 L42336000,1951874.9999999292 L42422400,1943187.499999929 L42508800,1934499.9999999288 L42595200,1925812.4999999285 L42681600,1917124.9999999283 L42768000,1908437.499999928 L42854400,1899749.9999999278 L42940800,1891062.4999999276 L43027200,1882374.9999999274 L43113600,1873687.4999999271 L43200000,1864999.999999927 L43286400,1856312.4999999267 L43372800,1847624.9999999264 L43459200,1838937.4999999262 L43545600,1830249.999999926 L43632000,1821562.4999999257 L43718400,1812874.9999999255 L43804800,1804187.4999999253 L43891200,1795499.999999925 L43977600,1786812.4999999248 L44064000,1698958.3333332578 L44150400,1690270.8333332576 L44236800,1681583.3333332574 L44323200,1672895.8333332571 L44409600,1664208.333333257 L44496000,1655520.8333332567 L44582400,1646833.3333332564 L44668800,1638145.8333332562 L44755200,1629458.333333256 L44841600,1620770.8333332557 L44928000,1612083.3333332555 L45014400,1603395.8333332553 L45100800,1594708.333333255 L45187200,1586020.8333332548 L45273600,1577333.3333332546 L45360000,1568645.8333332543 L45446400,1559958.333333254 L45532800,1551270.8333332539 L45619200,1542583.3333332536 L45705600,1533895.8333332534 L45792000,1525208.3333332532 L45878400,1516520.833333253 L45964800,1507833.3333332527 L46051200,1499145.8333332525 L46137600,1490458.3333332522 L46224000,1481770.833333252 L46310400,1473083.3333332518 L46396800,1464395.8333332515 L46483200,1455708.3333332513 L46569600,1447020.833333251 L46656000,1359166.666666584 L46742400,1350479.1666665839 L46828800,1341791.6666665836 L46915200,1333104.1666665834 L47001600,1324416.6666665832 L47088000,1315729.166666583 L47174400,1307041.6666665827 L47260800,1298354.1666665825 L47347200,1289666.6666665822 L47433600,1280979.166666582 L47520000,1272291.6666665818 L47606400,1263604.1666665815 L47692800,1254916.6666665813 L47779200,1246229.166666581 L47865600,1237541.6666665808 L47952000,1228854.1666665806 L48038400,1220166.6666665804 L48124800,1211479.1666665801 L48211200,1202791.66666658 L48297600,1194104.1666665797 L48384000,1185416.6666665794 L48470400,1176729.1666665792 L48556800,1168041.666666579 L48643200,1159354.1666665787 L48729600,1150666.6666665785 L48816000,1141979.1666665783 L48902400,1133291.666666578 L48988800,1124604.1666665778 L49075200,1115916.6666665776 L49161600,1107229.1666665773 L49248000,1019374.9999999108 L49334400,1010687.499999911 L49420800,1001999.9999999111 L49507200,993312.4999999112 L49593600,984624.9999999113 L49680000,975937.4999999114 L49766400,967249.9999999115 L49852800,958562.4999999116 L49939200,949874.9999999118 L50025600,941187.4999999119 L50112000,932499.999999912 L50198400,923812.4999999121 L50284800,915124.9999999122 L50371200,906437.4999999123 L50457600,897749.9999999125 L50544000,889062.4999999126 L50630400,880374.9999999127 L50716800,871687.4999999128 L50803200,862999.9999999129 L50889600,854312.499999913 L50976000,845624.9999999132 L51062400,836937.4999999133 L51148800,828249.9999999134 L51235200,819562.4999999135 L51321600,810874.9999999136 L51408000,802187.4999999137 L51494400,793499.9999999139 L51580800,784812.499999914 L51667200,776124.9999999141 L51753600,767437.4999999142 L51840000,679583.3333332477 L51926400,670895.8333332478 L52012800,662208.3333332479 L52099200,653520.833333248 L52185600,644833.3333332482 L52272000,636145.8333332483 L52358400,627458.3333332484 L52444800,618770.8333332485 L52531200,610083.3333332486 L52617600,601395.8333332487 L52704000,592708.3333332489 L52790400,584020.833333249 L52876800,575333.3333332491 L52963200,566645.8333332492 L53049600,557958.3333332493 L53136000,549270.8333332494 L53222400,540583.3333332496 L53308800,531895.8333332497 L53395200,523208.33333324967 L53481600,514520.8333332496 L53568000,505833.33333324955 L53654400,497145.8333332495 L53740800,488458.33333324944 L53827200,479770.8333332494 L53913600,471083.3333332493 L54000000,462395.83333324926 L54086400,453708.3333332492 L54172800,445020.83333324915 L54259200,436333.3333332491 L54345600,427645.83333324903 L54432000,339791.6666665823 L54518400,331104.1666665822 L54604800,322416.66666658217 L54691200,313729.1666665821 L54777600,305041.66666658205 L54864000,296354.166666582 L54950400,287666.66666658194 L55036800,278979.1666665819 L55123200,270291.6666665818 L55209600,261604.16666658182 L55296000,252916.66666658185 L55382400,244229.16666658188 L55468800,235541.6666665819 L55555200,226854.16666658194 L55641600,218166.66666658196 L55728000,209479.166666582 L55814400,200791.66666658202 L55900800,192104.16666658205 L55987200,183416.66666658208 L56073600,174729.1666665821 L56160000,166041.66666658214 L56246400,157354.16666658217 L56332800,148666.6666665822 L56419200,139979.16666658223 L56505600,131291.66666658226 L56592000,122604.16666658224 L56678400,113916.66666658223 L56764800,105229.16666658221 L56851200,96541.6666665822 L56937600,87854.16666658218 L57024000,-7.054981665532978e-8" fill="none" stroke="red"></path></g><g data-key="AdvisorR"><path d="M0,0 L0,90000" fill="none" stroke="red"></path></g><g data-key="DEX"><path d="M0,0 L0,300000" fill="none" stroke="red"></path></g><g data-key="???"><path d="M0,0 L0,3700000" fill="none" stroke="red"></path></g><g data-key="DevFund"><path d="M0,0 L0,0 L10368000,75000 L12960000,154166.6666666667 L15552000,233333.33333333337 L18144000,312500.00000000006 L20736000,391666.66666666674 L23328000,470833.33333333343 L25920000,550000.0000000001 L28512000,629166.6666666667 L31104000,708333.3333333334 L33696000,787500 L36288000,866666.6666666666 L38880000,945833.3333333333 L41472000,1024999.9999999999 L44064000,1104166.6666666665 L46656000,1183333.3333333333 L49248000,1262500 L51840000,1341666.6666666667 L54432000,1420833.3333333335 L57024000,1500000" fill="none" stroke="red"></path></g><g data-key="Founder1"><path d="M0,0 L0,0 L15552000,89700 L15638400,91381.875 L15724800,93063.75 L15811200,94745.625 L15897600,96427.5 L15984000,98109.375 L16070400,99791.25 L16156800,101473.125 L16243200,103155 L16329600,104836.875 L16416000,106518.75 L16502400,108200.625 L16588800,109882.5 L16675200,111564.375 L16761600,113246.25 L16848000,114928.125 L16934400,116610 L17020800,118291.875 L17107200,119973.75 L17193600,121655.625 L17280000,123337.5 L17366400,125019.375 L17452800,126701.25 L17539200,128383.125 L17625600,130065 L17712000,131746.875 L17798400,133428.75 L17884800,135110.625 L17971200,136792.5 L18057600,138474.375 L18144000,140156.25 L18230400,141838.125 L18316800,143520 L18403200,145201.875 L18489600,146883.75 L18576000,148565.625 L18662400,150247.5 L18748800,151929.375 L18835200,153611.25 L18921600,155293.125 L19008000,156975 L19094400,158656.875 L19180800,160338.75 L19267200,162020.625 L19353600,163702.5 L19440000,165384.375 L19526400,167066.25 L19612800,168748.125 L19699200,170430 L19785600,172111.875 L19872000,173793.75 L19958400,175475.625 L20044800,177157.5 L20131200,178839.375 L20217600,180521.25 L20304000,182203.125 L20390400,183885 L20476800,185566.875 L20563200,187248.75 L20649600,188930.625 L20736000,190612.5 L20822400,192294.375 L20908800,193976.25 L20995200,195658.125 L21081600,197340 L21168000,199021.875 L21254400,200703.75 L21340800,202385.625 L21427200,204067.5 L21513600,205749.375 L21600000,207431.25 L21686400,209113.125 L21772800,210795 L21859200,212476.875 L21945600,214158.75 L22032000,215840.625 L22118400,217522.5 L22204800,219204.375 L22291200,220886.25 L22377600,222568.125 L22464000,224250 L22550400,225931.875 L22636800,227613.75 L22723200,229295.625 L22809600,230977.5 L22896000,232659.375 L22982400,234341.25 L23068800,236023.125 L23155200,237705 L23241600,239386.875 L23328000,241068.75 L23414400,242750.625 L23500800,244432.5 L23587200,246114.375 L23673600,247796.25 L23760000,249478.125 L23846400,251160 L23932800,252841.875 L24019200,254523.75 L24105600,256205.625 L24192000,257887.5 L24278400,259569.375 L24364800,261251.25 L24451200,262933.125 L24537600,264615 L24624000,266296.875 L24710400,267978.75 L24796800,269660.625 L24883200,271342.5 L24969600,273024.375 L25056000,274706.25 L25142400,276388.125 L25228800,278070 L25315200,279751.875 L25401600,281433.75 L25488000,283115.625 L25574400,284797.5 L25660800,286479.375 L25747200,288161.25 L25833600,289843.125 L25920000,291525 L26006400,293206.875 L26092800,294888.75 L26179200,296570.625 L26265600,298252.5 L26352000,299934.375 L26438400,301616.25 L26524800,303298.125 L26611200,304980 L26697600,306661.875 L26784000,308343.75 L26870400,310025.625 L26956800,311707.5 L27043200,313389.375 L27129600,315071.25 L27216000,316753.125 L27302400,318435 L27388800,320116.875 L27475200,321798.75 L27561600,323480.625 L27648000,325162.5 L27734400,326844.375 L27820800,328526.25 L27907200,330208.125 L27993600,331890 L28080000,333571.875 L28166400,335253.75 L28252800,336935.625 L28339200,338617.5 L28425600,340299.375 L28512000,341981.25 L28598400,343663.125 L28684800,345345 L28771200,347026.875 L28857600,348708.75 L28944000,350390.625 L29030400,352072.5 L29116800,353754.375 L29203200,355436.25 L29289600,357118.125 L29376000,358800 L29462400,360481.875 L29548800,362163.75 L29635200,363845.625 L29721600,365527.5 L29808000,367209.375 L29894400,368891.25 L29980800,370573.125 L30067200,372255 L30153600,373936.875 L30240000,375618.75 L30326400,377300.625 L30412800,378982.5 L30499200,380664.375 L30585600,382346.25 L30672000,384028.125 L30758400,385710 L30844800,387391.875 L30931200,389073.75 L31017600,390755.625 L31104000,392437.5 L31190400,394119.375 L31276800,395801.25 L31363200,397483.125 L31449600,399165 L31536000,400846.875 L31622400,402528.75 L31708800,404210.625 L31795200,405892.5 L31881600,407574.375 L31968000,409256.25 L32054400,410938.125 L32140800,412620 L32227200,414301.875 L32313600,415983.75 L32400000,417665.625 L32486400,419347.5 L32572800,421029.375 L32659200,422711.25 L32745600,424393.125 L32832000,426075 L32918400,427756.875 L33004800,429438.75 L33091200,431120.625 L33177600,432802.5 L33264000,434484.375 L33350400,436166.25 L33436800,437848.125 L33523200,439530 L33609600,441211.875 L33696000,442893.75 L33782400,444575.625 L33868800,446257.5 L33955200,447939.375 L34041600,449621.25 L34128000,451303.125 L34214400,452985 L34300800,454666.875 L34387200,456348.75 L34473600,458030.625 L34560000,459712.5 L34646400,461394.375 L34732800,463076.25 L34819200,464758.125 L34905600,466440 L34992000,468121.875 L35078400,469803.75 L35164800,471485.625 L35251200,473167.5 L35337600,474849.375 L35424000,476531.25 L35510400,478213.125 L35596800,479895 L35683200,481576.875 L35769600,483258.75 L35856000,484940.625 L35942400,486622.5 L36028800,488304.375 L36115200,489986.25 L36201600,491668.125 L36288000,493350 L36374400,495031.875 L36460800,496713.75 L36547200,498395.625 L36633600,500077.5 L36720000,501759.375 L36806400,503441.25 L36892800,505123.125 L36979200,506805 L37065600,508486.875 L37152000,510168.75 L37238400,511850.625 L37324800,513532.5 L37411200,515214.375 L37497600,516896.25 L37584000,518578.125 L37670400,520260 L37756800,521941.875 L37843200,523623.75 L37929600,525305.625 L38016000,526987.5 L38102400,528669.375 L38188800,530351.25 L38275200,532033.125 L38361600,533715 L38448000,535396.875 L38534400,537078.75 L38620800,538760.625 L38707200,540442.5 L38793600,542124.375 L38880000,543806.25 L38966400,545488.125 L39052800,547170 L39139200,548851.875 L39225600,550533.75 L39312000,552215.625 L39398400,553897.5 L39484800,555579.375 L39571200,557261.25 L39657600,558943.125 L39744000,560625 L39830400,562306.875 L39916800,563988.75 L40003200,565670.625 L40089600,567352.5 L40176000,569034.375 L40262400,570716.25 L40348800,572398.125 L40435200,574080 L40521600,575761.875 L40608000,577443.75 L40694400,579125.625 L40780800,580807.5 L40867200,582489.375 L40953600,584171.25 L41040000,585853.125 L41126400,587535 L41212800,589216.875 L41299200,590898.75 L41385600,592580.625 L41472000,594262.5 L41558400,595944.375 L41644800,597626.25 L41731200,599308.125 L41817600,600990 L41904000,602671.875 L41990400,604353.75 L42076800,606035.625 L42163200,607717.5 L42249600,609399.375 L42336000,611081.25 L42422400,612763.125 L42508800,614445 L42595200,616126.875 L42681600,617808.75 L42768000,619490.625 L42854400,621172.5 L42940800,622854.375 L43027200,624536.25 L43113600,626218.125 L43200000,627900 L43286400,629581.875 L43372800,631263.75 L43459200,632945.625 L43545600,634627.5 L43632000,636309.375 L43718400,637991.25 L43804800,639673.125 L43891200,641355 L43977600,643036.875 L44064000,644718.75 L44150400,646400.625 L44236800,648082.5 L44323200,649764.375 L44409600,651446.25 L44496000,653128.125 L44582400,654810 L44668800,656491.875 L44755200,658173.75 L44841600,659855.625 L44928000,661537.5 L45014400,663219.375 L45100800,664901.25 L45187200,666583.125 L45273600,668265 L45360000,669946.875 L45446400,671628.75 L45532800,673310.625 L45619200,674992.5 L45705600,676674.375 L45792000,678356.25 L45878400,680038.125 L45964800,681720 L46051200,683401.875 L46137600,685083.75 L46224000,686765.625 L46310400,688447.5 L46396800,690129.375 L46483200,691811.25 L46569600,693493.125 L46656000,695175 L46742400,696856.875 L46828800,698538.75 L46915200,700220.625 L47001600,701902.5 L47088000,703584.375 L47174400,705266.25 L47260800,706948.125 L47347200,708630 L47433600,710311.875 L47520000,711993.75 L47606400,713675.625 L47692800,715357.5 L47779200,717039.375 L47865600,718721.25 L47952000,720403.125 L48038400,722085 L48124800,723766.875 L48211200,725448.75 L48297600,727130.625 L48384000,728812.5 L48470400,730494.375 L48556800,732176.25 L48643200,733858.125 L48729600,735540 L48816000,737221.875 L48902400,738903.75 L48988800,740585.625 L49075200,742267.5 L49161600,743949.375 L49248000,745631.25 L49334400,747313.125 L49420800,748995 L49507200,750676.875 L49593600,752358.75 L49680000,754040.625 L49766400,755722.5 L49852800,757404.375 L49939200,759086.25 L50025600,760768.125 L50112000,762450 L50198400,764131.875 L50284800,765813.75 L50371200,767495.625 L50457600,769177.5 L50544000,770859.375 L50630400,772541.25 L50716800,774223.125 L50803200,775905 L50889600,777586.875 L50976000,779268.75 L51062400,780950.625 L51148800,782632.5 L51235200,784314.375 L51321600,785996.25 L51408000,787678.125 L51494400,789360 L51580800,791041.875 L51667200,792723.75 L51753600,794405.625 L51840000,796087.5 L51926400,797769.375 L52012800,799451.25 L52099200,801133.125 L52185600,802815 L52272000,804496.875 L52358400,806178.75 L52444800,807860.625 L52531200,809542.5 L52617600,811224.375 L52704000,812906.25 L52790400,814588.125 L52876800,816270 L52963200,817951.875 L53049600,819633.75 L53136000,821315.625 L53222400,822997.5 L53308800,824679.375 L53395200,826361.25 L53481600,828043.125 L53568000,829725 L53654400,831406.875 L53740800,833088.75 L53827200,834770.625 L53913600,836452.5 L54000000,838134.375 L54086400,839816.25 L54172800,841498.125 L54259200,843180 L54345600,844861.875 L54432000,846543.75 L54518400,848225.625 L54604800,849907.5 L54691200,851589.375 L54777600,853271.25 L54864000,854953.125 L54950400,856635 L55036800,858316.875 L55123200,859998.75 L55209600,861680.625 L55296000,863362.5 L55382400,865044.375 L55468800,866726.25 L55555200,868408.125 L55641600,870090 L55728000,871771.875 L55814400,873453.75 L55900800,875135.625 L55987200,876817.5 L56073600,878499.375 L56160000,880181.25 L56246400,881863.125 L56332800,883545 L56419200,885226.875 L56505600,886908.75 L56592000,888590.625 L56678400,890272.5 L56764800,891954.375 L56851200,893636.25 L56937600,895318.125 L57024000,897000" fill="none" stroke="red"></path></g><g data-key="Founder2"><path d="M0,0 L0,0 L15552000,89700 L15638400,91381.875 L15724800,93063.75 L15811200,94745.625 L15897600,96427.5 L15984000,98109.375 L16070400,99791.25 L16156800,101473.125 L16243200,103155 L16329600,104836.875 L16416000,106518.75 L16502400,108200.625 L16588800,109882.5 L16675200,111564.375 L16761600,113246.25 L16848000,114928.125 L16934400,116610 L17020800,118291.875 L17107200,119973.75 L17193600,121655.625 L17280000,123337.5 L17366400,125019.375 L17452800,126701.25 L17539200,128383.125 L17625600,130065 L17712000,131746.875 L17798400,133428.75 L17884800,135110.625 L17971200,136792.5 L18057600,138474.375 L18144000,140156.25 L18230400,141838.125 L18316800,143520 L18403200,145201.875 L18489600,146883.75 L18576000,148565.625 L18662400,150247.5 L18748800,151929.375 L18835200,153611.25 L18921600,155293.125 L19008000,156975 L19094400,158656.875 L19180800,160338.75 L19267200,162020.625 L19353600,163702.5 L19440000,165384.375 L19526400,167066.25 L19612800,168748.125 L19699200,170430 L19785600,172111.875 L19872000,173793.75 L19958400,175475.625 L20044800,177157.5 L20131200,178839.375 L20217600,180521.25 L20304000,182203.125 L20390400,183885 L20476800,185566.875 L20563200,187248.75 L20649600,188930.625 L20736000,190612.5 L20822400,192294.375 L20908800,193976.25 L20995200,195658.125 L21081600,197340 L21168000,199021.875 L21254400,200703.75 L21340800,202385.625 L21427200,204067.5 L21513600,205749.375 L21600000,207431.25 L21686400,209113.125 L21772800,210795 L21859200,212476.875 L21945600,214158.75 L22032000,215840.625 L22118400,217522.5 L22204800,219204.375 L22291200,220886.25 L22377600,222568.125 L22464000,224250 L22550400,225931.875 L22636800,227613.75 L22723200,229295.625 L22809600,230977.5 L22896000,232659.375 L22982400,234341.25 L23068800,236023.125 L23155200,237705 L23241600,239386.875 L23328000,241068.75 L23414400,242750.625 L23500800,244432.5 L23587200,246114.375 L23673600,247796.25 L23760000,249478.125 L23846400,251160 L23932800,252841.875 L24019200,254523.75 L24105600,256205.625 L24192000,257887.5 L24278400,259569.375 L24364800,261251.25 L24451200,262933.125 L24537600,264615 L24624000,266296.875 L24710400,267978.75 L24796800,269660.625 L24883200,271342.5 L24969600,273024.375 L25056000,274706.25 L25142400,276388.125 L25228800,278070 L25315200,279751.875 L25401600,281433.75 L25488000,283115.625 L25574400,284797.5 L25660800,286479.375 L25747200,288161.25 L25833600,289843.125 L25920000,291525 L26006400,293206.875 L26092800,294888.75 L26179200,296570.625 L26265600,298252.5 L26352000,299934.375 L26438400,301616.25 L26524800,303298.125 L26611200,304980 L26697600,306661.875 L26784000,308343.75 L26870400,310025.625 L26956800,311707.5 L27043200,313389.375 L27129600,315071.25 L27216000,316753.125 L27302400,318435 L27388800,320116.875 L27475200,321798.75 L27561600,323480.625 L27648000,325162.5 L27734400,326844.375 L27820800,328526.25 L27907200,330208.125 L27993600,331890 L28080000,333571.875 L28166400,335253.75 L28252800,336935.625 L28339200,338617.5 L28425600,340299.375 L28512000,341981.25 L28598400,343663.125 L28684800,345345 L28771200,347026.875 L28857600,348708.75 L28944000,350390.625 L29030400,352072.5 L29116800,353754.375 L29203200,355436.25 L29289600,357118.125 L29376000,358800 L29462400,360481.875 L29548800,362163.75 L29635200,363845.625 L29721600,365527.5 L29808000,367209.375 L29894400,368891.25 L29980800,370573.125 L30067200,372255 L30153600,373936.875 L30240000,375618.75 L30326400,377300.625 L30412800,378982.5 L30499200,380664.375 L30585600,382346.25 L30672000,384028.125 L30758400,385710 L30844800,387391.875 L30931200,389073.75 L31017600,390755.625 L31104000,392437.5 L31190400,394119.375 L31276800,395801.25 L31363200,397483.125 L31449600,399165 L31536000,400846.875 L31622400,402528.75 L31708800,404210.625 L31795200,405892.5 L31881600,407574.375 L31968000,409256.25 L32054400,410938.125 L32140800,412620 L32227200,414301.875 L32313600,415983.75 L32400000,417665.625 L32486400,419347.5 L32572800,421029.375 L32659200,422711.25 L32745600,424393.125 L32832000,426075 L32918400,427756.875 L33004800,429438.75 L33091200,431120.625 L33177600,432802.5 L33264000,434484.375 L33350400,436166.25 L33436800,437848.125 L33523200,439530 L33609600,441211.875 L33696000,442893.75 L33782400,444575.625 L33868800,446257.5 L33955200,447939.375 L34041600,449621.25 L34128000,451303.125 L34214400,452985 L34300800,454666.875 L34387200,456348.75 L34473600,458030.625 L34560000,459712.5 L34646400,461394.375 L34732800,463076.25 L34819200,464758.125 L34905600,466440 L34992000,468121.875 L35078400,469803.75 L35164800,471485.625 L35251200,473167.5 L35337600,474849.375 L35424000,476531.25 L35510400,478213.125 L35596800,479895 L35683200,481576.875 L35769600,483258.75 L35856000,484940.625 L35942400,486622.5 L36028800,488304.375 L36115200,489986.25 L36201600,491668.125 L36288000,493350 L36374400,495031.875 L36460800,496713.75 L36547200,498395.625 L36633600,500077.5 L36720000,501759.375 L36806400,503441.25 L36892800,505123.125 L36979200,506805 L37065600,508486.875 L37152000,510168.75 L37238400,511850.625 L37324800,513532.5 L37411200,515214.375 L37497600,516896.25 L37584000,518578.125 L37670400,520260 L37756800,521941.875 L37843200,523623.75 L37929600,525305.625 L38016000,526987.5 L38102400,528669.375 L38188800,530351.25 L38275200,532033.125 L38361600,533715 L38448000,535396.875 L38534400,537078.75 L38620800,538760.625 L38707200,540442.5 L38793600,542124.375 L38880000,543806.25 L38966400,545488.125 L39052800,547170 L39139200,548851.875 L39225600,550533.75 L39312000,552215.625 L39398400,553897.5 L39484800,555579.375 L39571200,557261.25 L39657600,558943.125 L39744000,560625 L39830400,562306.875 L39916800,563988.75 L40003200,565670.625 L40089600,567352.5 L40176000,569034.375 L40262400,570716.25 L40348800,572398.125 L40435200,574080 L40521600,575761.875 L40608000,577443.75 L40694400,579125.625 L40780800,580807.5 L40867200,582489.375 L40953600,584171.25 L41040000,585853.125 L41126400,587535 L41212800,589216.875 L41299200,590898.75 L41385600,592580.625 L41472000,594262.5 L41558400,595944.375 L41644800,597626.25 L41731200,599308.125 L41817600,600990 L41904000,602671.875 L41990400,604353.75 L42076800,606035.625 L42163200,607717.5 L42249600,609399.375 L42336000,611081.25 L42422400,612763.125 L42508800,614445 L42595200,616126.875 L42681600,617808.75 L42768000,619490.625 L42854400,621172.5 L42940800,622854.375 L43027200,624536.25 L43113600,626218.125 L43200000,627900 L43286400,629581.875 L43372800,631263.75 L43459200,632945.625 L43545600,634627.5 L43632000,636309.375 L43718400,637991.25 L43804800,639673.125 L43891200,641355 L43977600,643036.875 L44064000,644718.75 L44150400,646400.625 L44236800,648082.5 L44323200,649764.375 L44409600,651446.25 L44496000,653128.125 L44582400,654810 L44668800,656491.875 L44755200,658173.75 L44841600,659855.625 L44928000,661537.5 L45014400,663219.375 L45100800,664901.25 L45187200,666583.125 L45273600,668265 L45360000,669946.875 L45446400,671628.75 L45532800,673310.625 L45619200,674992.5 L45705600,676674.375 L45792000,678356.25 L45878400,680038.125 L45964800,681720 L46051200,683401.875 L46137600,685083.75 L46224000,686765.625 L46310400,688447.5 L46396800,690129.375 L46483200,691811.25 L46569600,693493.125 L46656000,695175 L46742400,696856.875 L46828800,698538.75 L46915200,700220.625 L47001600,701902.5 L47088000,703584.375 L47174400,705266.25 L47260800,706948.125 L47347200,708630 L47433600,710311.875 L47520000,711993.75 L47606400,713675.625 L47692800,715357.5 L47779200,717039.375 L47865600,718721.25 L47952000,720403.125 L48038400,722085 L48124800,723766.875 L48211200,725448.75 L48297600,727130.625 L48384000,728812.5 L48470400,730494.375 L48556800,732176.25 L48643200,733858.125 L48729600,735540 L48816000,737221.875 L48902400,738903.75 L48988800,740585.625 L49075200,742267.5 L49161600,743949.375 L49248000,745631.25 L49334400,747313.125 L49420800,748995 L49507200,750676.875 L49593600,752358.75 L49680000,754040.625 L49766400,755722.5 L49852800,757404.375 L49939200,759086.25 L50025600,760768.125 L50112000,762450 L50198400,764131.875 L50284800,765813.75 L50371200,767495.625 L50457600,769177.5 L50544000,770859.375 L50630400,772541.25 L50716800,774223.125 L50803200,775905 L50889600,777586.875 L50976000,779268.75 L51062400,780950.625 L51148800,782632.5 L51235200,784314.375 L51321600,785996.25 L51408000,787678.125 L51494400,789360 L51580800,791041.875 L51667200,792723.75 L51753600,794405.625 L51840000,796087.5 L51926400,797769.375 L52012800,799451.25 L52099200,801133.125 L52185600,802815 L52272000,804496.875 L52358400,806178.75 L52444800,807860.625 L52531200,809542.5 L52617600,811224.375 L52704000,812906.25 L52790400,814588.125 L52876800,816270 L52963200,817951.875 L53049600,819633.75 L53136000,821315.625 L53222400,822997.5 L53308800,824679.375 L53395200,826361.25 L53481600,828043.125 L53568000,829725 L53654400,831406.875 L53740800,833088.75 L53827200,834770.625 L53913600,836452.5 L54000000,838134.375 L54086400,839816.25 L54172800,841498.125 L54259200,843180 L54345600,844861.875 L54432000,846543.75 L54518400,848225.625 L54604800,849907.5 L54691200,851589.375 L54777600,853271.25 L54864000,854953.125 L54950400,856635 L55036800,858316.875 L55123200,859998.75 L55209600,861680.625 L55296000,863362.5 L55382400,865044.375 L55468800,866726.25 L55555200,868408.125 L55641600,870090 L55728000,871771.875 L55814400,873453.75 L55900800,875135.625 L55987200,876817.5 L56073600,878499.375 L56160000,880181.25 L56246400,881863.125 L56332800,883545 L56419200,885226.875 L56505600,886908.75 L56592000,888590.625 L56678400,890272.5 L56764800,891954.375 L56851200,893636.25 L56937600,895318.125 L57024000,897000" fill="none" stroke="red"></path></g><g data-key="Founder3"><path d="M0,0 L0,0 L15552000,43700 L15638400,44519.375 L15724800,45338.75 L15811200,46158.125 L15897600,46977.5 L15984000,47796.875 L16070400,48616.25 L16156800,49435.625 L16243200,50255 L16329600,51074.375 L16416000,51893.75 L16502400,52713.125 L16588800,53532.5 L16675200,54351.875 L16761600,55171.25 L16848000,55990.625 L16934400,56810 L17020800,57629.375 L17107200,58448.75 L17193600,59268.125 L17280000,60087.5 L17366400,60906.875 L17452800,61726.25 L17539200,62545.625 L17625600,63365 L17712000,64184.375 L17798400,65003.75 L17884800,65823.125 L17971200,66642.5 L18057600,67461.875 L18144000,68281.25 L18230400,69100.625 L18316800,69920 L18403200,70739.375 L18489600,71558.75 L18576000,72378.125 L18662400,73197.5 L18748800,74016.875 L18835200,74836.25 L18921600,75655.625 L19008000,76475 L19094400,77294.375 L19180800,78113.75 L19267200,78933.125 L19353600,79752.5 L19440000,80571.875 L19526400,81391.25 L19612800,82210.625 L19699200,83030 L19785600,83849.375 L19872000,84668.75 L19958400,85488.125 L20044800,86307.5 L20131200,87126.875 L20217600,87946.25 L20304000,88765.625 L20390400,89585 L20476800,90404.375 L20563200,91223.75 L20649600,92043.125 L20736000,92862.5 L20822400,93681.875 L20908800,94501.25 L20995200,95320.625 L21081600,96140 L21168000,96959.375 L21254400,97778.75 L21340800,98598.125 L21427200,99417.5 L21513600,100236.875 L21600000,101056.25 L21686400,101875.625 L21772800,102695 L21859200,103514.375 L21945600,104333.75 L22032000,105153.125 L22118400,105972.5 L22204800,106791.875 L22291200,107611.25 L22377600,108430.625 L22464000,109250 L22550400,110069.375 L22636800,110888.75 L22723200,111708.125 L22809600,112527.5 L22896000,113346.875 L22982400,114166.25 L23068800,114985.625 L23155200,115805 L23241600,116624.375 L23328000,117443.75 L23414400,118263.125 L23500800,119082.5 L23587200,119901.875 L23673600,120721.25 L23760000,121540.625 L23846400,122360 L23932800,123179.375 L24019200,123998.75 L24105600,124818.125 L24192000,125637.5 L24278400,126456.875 L24364800,127276.25 L24451200,128095.625 L24537600,128915 L24624000,129734.375 L24710400,130553.75 L24796800,131373.125 L24883200,132192.5 L24969600,133011.875 L25056000,133831.25 L25142400,134650.625 L25228800,135470 L25315200,136289.375 L25401600,137108.75 L25488000,137928.125 L25574400,138747.5 L25660800,139566.875 L25747200,140386.25 L25833600,141205.625 L25920000,142025 L26006400,142844.375 L26092800,143663.75 L26179200,144483.125 L26265600,145302.5 L26352000,146121.875 L26438400,146941.25 L26524800,147760.625 L26611200,148580 L26697600,149399.375 L26784000,150218.75 L26870400,151038.125 L26956800,151857.5 L27043200,152676.875 L27129600,153496.25 L27216000,154315.625 L27302400,155135 L27388800,155954.375 L27475200,156773.75 L27561600,157593.125 L27648000,158412.5 L27734400,159231.875 L27820800,160051.25 L27907200,160870.625 L27993600,161690 L28080000,162509.375 L28166400,163328.75 L28252800,164148.125 L28339200,164967.5 L28425600,165786.875 L28512000,166606.25 L28598400,167425.625 L28684800,168245 L28771200,169064.375 L28857600,169883.75 L28944000,170703.125 L29030400,171522.5 L29116800,172341.875 L29203200,173161.25 L29289600,173980.625 L29376000,174800 L29462400,175619.375 L29548800,176438.75 L29635200,177258.125 L29721600,178077.5 L29808000,178896.875 L29894400,179716.25 L29980800,180535.625 L30067200,181355 L30153600,182174.375 L30240000,182993.75 L30326400,183813.125 L30412800,184632.5 L30499200,185451.875 L30585600,186271.25 L30672000,187090.625 L30758400,187910 L30844800,188729.375 L30931200,189548.75 L31017600,190368.125 L31104000,191187.5 L31190400,192006.875 L31276800,192826.25 L31363200,193645.625 L31449600,194465 L31536000,195284.375 L31622400,196103.75 L31708800,196923.125 L31795200,197742.5 L31881600,198561.875 L31968000,199381.25 L32054400,200200.625 L32140800,201020 L32227200,201839.375 L32313600,202658.75 L32400000,203478.125 L32486400,204297.5 L32572800,205116.875 L32659200,205936.25 L32745600,206755.625 L32832000,207575 L32918400,208394.375 L33004800,209213.75 L33091200,210033.125 L33177600,210852.5 L33264000,211671.875 L33350400,212491.25 L33436800,213310.625 L33523200,214130 L33609600,214949.375 L33696000,215768.75 L33782400,216588.125 L33868800,217407.5 L33955200,218226.875 L34041600,219046.25 L34128000,219865.625 L34214400,220685 L34300800,221504.375 L34387200,222323.75 L34473600,223143.125 L34560000,223962.5 L34646400,224781.875 L34732800,225601.25 L34819200,226420.625 L34905600,227240 L34992000,228059.375 L35078400,228878.75 L35164800,229698.125 L35251200,230517.5 L35337600,231336.875 L35424000,232156.25 L35510400,232975.625 L35596800,233795 L35683200,234614.375 L35769600,235433.75 L35856000,236253.125 L35942400,237072.5 L36028800,237891.875 L36115200,238711.25 L36201600,239530.625 L36288000,240350 L36374400,241169.375 L36460800,241988.75 L36547200,242808.125 L36633600,243627.5 L36720000,244446.875 L36806400,245266.25 L36892800,246085.625 L36979200,246905 L37065600,247724.375 L37152000,248543.75 L37238400,249363.125 L37324800,250182.5 L37411200,251001.875 L37497600,251821.25 L37584000,252640.625 L37670400,253460 L37756800,254279.375 L37843200,255098.75 L37929600,255918.125 L38016000,256737.5 L38102400,257556.875 L38188800,258376.25 L38275200,259195.625 L38361600,260015 L38448000,260834.375 L38534400,261653.75 L38620800,262473.125 L38707200,263292.5 L38793600,264111.875 L38880000,264931.25 L38966400,265750.625 L39052800,266570 L39139200,267389.375 L39225600,268208.75 L39312000,269028.125 L39398400,269847.5 L39484800,270666.875 L39571200,271486.25 L39657600,272305.625 L39744000,273125 L39830400,273944.375 L39916800,274763.75 L40003200,275583.125 L40089600,276402.5 L40176000,277221.875 L40262400,278041.25 L40348800,278860.625 L40435200,279680 L40521600,280499.375 L40608000,281318.75 L40694400,282138.125 L40780800,282957.5 L40867200,283776.875 L40953600,284596.25 L41040000,285415.625 L41126400,286235 L41212800,287054.375 L41299200,287873.75 L41385600,288693.125 L41472000,289512.5 L41558400,290331.875 L41644800,291151.25 L41731200,291970.625 L41817600,292790 L41904000,293609.375 L41990400,294428.75 L42076800,295248.125 L42163200,296067.5 L42249600,296886.875 L42336000,297706.25 L42422400,298525.625 L42508800,299345 L42595200,300164.375 L42681600,300983.75 L42768000,301803.125 L42854400,302622.5 L42940800,303441.875 L43027200,304261.25 L43113600,305080.625 L43200000,305900 L43286400,306719.375 L43372800,307538.75 L43459200,308358.125 L43545600,309177.5 L43632000,309996.875 L43718400,310816.25 L43804800,311635.625 L43891200,312455 L43977600,313274.375 L44064000,314093.75 L44150400,314913.125 L44236800,315732.5 L44323200,316551.875 L44409600,317371.25 L44496000,318190.625 L44582400,319010 L44668800,319829.375 L44755200,320648.75 L44841600,321468.125 L44928000,322287.5 L45014400,323106.875 L45100800,323926.25 L45187200,324745.625 L45273600,325565 L45360000,326384.375 L45446400,327203.75 L45532800,328023.125 L45619200,328842.5 L45705600,329661.875 L45792000,330481.25 L45878400,331300.625 L45964800,332120 L46051200,332939.375 L46137600,333758.75 L46224000,334578.125 L46310400,335397.5 L46396800,336216.875 L46483200,337036.25 L46569600,337855.625 L46656000,338675 L46742400,339494.375 L46828800,340313.75 L46915200,341133.125 L47001600,341952.5 L47088000,342771.875 L47174400,343591.25 L47260800,344410.625 L47347200,345230 L47433600,346049.375 L47520000,346868.75 L47606400,347688.125 L47692800,348507.5 L47779200,349326.875 L47865600,350146.25 L47952000,350965.625 L48038400,351785 L48124800,352604.375 L48211200,353423.75 L48297600,354243.125 L48384000,355062.5 L48470400,355881.875 L48556800,356701.25 L48643200,357520.625 L48729600,358340 L48816000,359159.375 L48902400,359978.75 L48988800,360798.125 L49075200,361617.5 L49161600,362436.875 L49248000,363256.25 L49334400,364075.625 L49420800,364895 L49507200,365714.375 L49593600,366533.75 L49680000,367353.125 L49766400,368172.5 L49852800,368991.875 L49939200,369811.25 L50025600,370630.625 L50112000,371450 L50198400,372269.375 L50284800,373088.75 L50371200,373908.125 L50457600,374727.5 L50544000,375546.875 L50630400,376366.25 L50716800,377185.625 L50803200,378005 L50889600,378824.375 L50976000,379643.75 L51062400,380463.125 L51148800,381282.5 L51235200,382101.875 L51321600,382921.25 L51408000,383740.625 L51494400,384560 L51580800,385379.375 L51667200,386198.75 L51753600,387018.125 L51840000,387837.5 L51926400,388656.875 L52012800,389476.25 L52099200,390295.625 L52185600,391115 L52272000,391934.375 L52358400,392753.75 L52444800,393573.125 L52531200,394392.5 L52617600,395211.875 L52704000,396031.25 L52790400,396850.625 L52876800,397670 L52963200,398489.375 L53049600,399308.75 L53136000,400128.125 L53222400,400947.5 L53308800,401766.875 L53395200,402586.25 L53481600,403405.625 L53568000,404225 L53654400,405044.375 L53740800,405863.75 L53827200,406683.125 L53913600,407502.5 L54000000,408321.875 L54086400,409141.25 L54172800,409960.625 L54259200,410780 L54345600,411599.375 L54432000,412418.75 L54518400,413238.125 L54604800,414057.5 L54691200,414876.875 L54777600,415696.25 L54864000,416515.625 L54950400,417335 L55036800,418154.375 L55123200,418973.75 L55209600,419793.125 L55296000,420612.5 L55382400,421431.875 L55468800,422251.25 L55555200,423070.625 L55641600,423890 L55728000,424709.375 L55814400,425528.75 L55900800,426348.125 L55987200,427167.5 L56073600,427986.875 L56160000,428806.25 L56246400,429625.625 L56332800,430445 L56419200,431264.375 L56505600,432083.75 L56592000,432903.125 L56678400,433722.5 L56764800,434541.875 L56851200,435361.25 L56937600,436180.625 L57024000,437000" fill="none" stroke="red"></path></g><g data-key="Founder4"><path d="M0,0 L0,0 L15552000,6900 L15638400,7029.375 L15724800,7158.75 L15811200,7288.125 L15897600,7417.5 L15984000,7546.875 L16070400,7676.25 L16156800,7805.625 L16243200,7935 L16329600,8064.375 L16416000,8193.75 L16502400,8323.125 L16588800,8452.5 L16675200,8581.875 L16761600,8711.25 L16848000,8840.625 L16934400,8970 L17020800,9099.375 L17107200,9228.75 L17193600,9358.125 L17280000,9487.5 L17366400,9616.875 L17452800,9746.25 L17539200,9875.625 L17625600,10005 L17712000,10134.375 L17798400,10263.75 L17884800,10393.125 L17971200,10522.5 L18057600,10651.875 L18144000,10781.25 L18230400,10910.625 L18316800,11040 L18403200,11169.375 L18489600,11298.75 L18576000,11428.125 L18662400,11557.5 L18748800,11686.875 L18835200,11816.25 L18921600,11945.625 L19008000,12075 L19094400,12204.375 L19180800,12333.75 L19267200,12463.125 L19353600,12592.5 L19440000,12721.875 L19526400,12851.25 L19612800,12980.625 L19699200,13110 L19785600,13239.375 L19872000,13368.75 L19958400,13498.125 L20044800,13627.5 L20131200,13756.875 L20217600,13886.25 L20304000,14015.625 L20390400,14145 L20476800,14274.375 L20563200,14403.75 L20649600,14533.125 L20736000,14662.5 L20822400,14791.875 L20908800,14921.25 L20995200,15050.625 L21081600,15180 L21168000,15309.375 L21254400,15438.75 L21340800,15568.125 L21427200,15697.5 L21513600,15826.875 L21600000,15956.25 L21686400,16085.625 L21772800,16215 L21859200,16344.375 L21945600,16473.75 L22032000,16603.125 L22118400,16732.5 L22204800,16861.875 L22291200,16991.25 L22377600,17120.625 L22464000,17250 L22550400,17379.375 L22636800,17508.75 L22723200,17638.125 L22809600,17767.5 L22896000,17896.875 L22982400,18026.25 L23068800,18155.625 L23155200,18285 L23241600,18414.375 L23328000,18543.75 L23414400,18673.125 L23500800,18802.5 L23587200,18931.875 L23673600,19061.25 L23760000,19190.625 L23846400,19320 L23932800,19449.375 L24019200,19578.75 L24105600,19708.125 L24192000,19837.5 L24278400,19966.875 L24364800,20096.25 L24451200,20225.625 L24537600,20355 L24624000,20484.375 L24710400,20613.75 L24796800,20743.125 L24883200,20872.5 L24969600,21001.875 L25056000,21131.25 L25142400,21260.625 L25228800,21390 L25315200,21519.375 L25401600,21648.75 L25488000,21778.125 L25574400,21907.5 L25660800,22036.875 L25747200,22166.25 L25833600,22295.625 L25920000,22425 L26006400,22554.375 L26092800,22683.75 L26179200,22813.125 L26265600,22942.5 L26352000,23071.875 L26438400,23201.25 L26524800,23330.625 L26611200,23460 L26697600,23589.375 L26784000,23718.75 L26870400,23848.125 L26956800,23977.5 L27043200,24106.875 L27129600,24236.25 L27216000,24365.625 L27302400,24495 L27388800,24624.375 L27475200,24753.75 L27561600,24883.125 L27648000,25012.5 L27734400,25141.875 L27820800,25271.25 L27907200,25400.625 L27993600,25530 L28080000,25659.375 L28166400,25788.75 L28252800,25918.125 L28339200,26047.5 L28425600,26176.875 L28512000,26306.25 L28598400,26435.625 L28684800,26565 L28771200,26694.375 L28857600,26823.75 L28944000,26953.125 L29030400,27082.5 L29116800,27211.875 L29203200,27341.25 L29289600,27470.625 L29376000,27600 L29462400,27729.375 L29548800,27858.75 L29635200,27988.125 L29721600,28117.5 L29808000,28246.875 L29894400,28376.25 L29980800,28505.625 L30067200,28635 L30153600,28764.375 L30240000,28893.75 L30326400,29023.125 L30412800,29152.5 L30499200,29281.875 L30585600,29411.25 L30672000,29540.625 L30758400,29670 L30844800,29799.375 L30931200,29928.75 L31017600,30058.125 L31104000,30187.5 L31190400,30316.875 L31276800,30446.25 L31363200,30575.625 L31449600,30705 L31536000,30834.375 L31622400,30963.75 L31708800,31093.125 L31795200,31222.5 L31881600,31351.875 L31968000,31481.25 L32054400,31610.625 L32140800,31740 L32227200,31869.375 L32313600,31998.75 L32400000,32128.125 L32486400,32257.5 L32572800,32386.875 L32659200,32516.25 L32745600,32645.625 L32832000,32775 L32918400,32904.375 L33004800,33033.75 L33091200,33163.125 L33177600,33292.5 L33264000,33421.875 L33350400,33551.25 L33436800,33680.625 L33523200,33810 L33609600,33939.375 L33696000,34068.75 L33782400,34198.125 L33868800,34327.5 L33955200,34456.875 L34041600,34586.25 L34128000,34715.625 L34214400,34845 L34300800,34974.375 L34387200,35103.75 L34473600,35233.125 L34560000,35362.5 L34646400,35491.875 L34732800,35621.25 L34819200,35750.625 L34905600,35880 L34992000,36009.375 L35078400,36138.75 L35164800,36268.125 L35251200,36397.5 L35337600,36526.875 L35424000,36656.25 L35510400,36785.625 L35596800,36915 L35683200,37044.375 L35769600,37173.75 L35856000,37303.125 L35942400,37432.5 L36028800,37561.875 L36115200,37691.25 L36201600,37820.625 L36288000,37950 L36374400,38079.375 L36460800,38208.75 L36547200,38338.125 L36633600,38467.5 L36720000,38596.875 L36806400,38726.25 L36892800,38855.625 L36979200,38985 L37065600,39114.375 L37152000,39243.75 L37238400,39373.125 L37324800,39502.5 L37411200,39631.875 L37497600,39761.25 L37584000,39890.625 L37670400,40020 L37756800,40149.375 L37843200,40278.75 L37929600,40408.125 L38016000,40537.5 L38102400,40666.875 L38188800,40796.25 L38275200,40925.625 L38361600,41055 L38448000,41184.375 L38534400,41313.75 L38620800,41443.125 L38707200,41572.5 L38793600,41701.875 L38880000,41831.25 L38966400,41960.625 L39052800,42090 L39139200,42219.375 L39225600,42348.75 L39312000,42478.125 L39398400,42607.5 L39484800,42736.875 L39571200,42866.25 L39657600,42995.625 L39744000,43125 L39830400,43254.375 L39916800,43383.75 L40003200,43513.125 L40089600,43642.5 L40176000,43771.875 L40262400,43901.25 L40348800,44030.625 L40435200,44160 L40521600,44289.375 L40608000,44418.75 L40694400,44548.125 L40780800,44677.5 L40867200,44806.875 L40953600,44936.25 L41040000,45065.625 L41126400,45195 L41212800,45324.375 L41299200,45453.75 L41385600,45583.125 L41472000,45712.5 L41558400,45841.875 L41644800,45971.25 L41731200,46100.625 L41817600,46230 L41904000,46359.375 L41990400,46488.75 L42076800,46618.125 L42163200,46747.5 L42249600,46876.875 L42336000,47006.25 L42422400,47135.625 L42508800,47265 L42595200,47394.375 L42681600,47523.75 L42768000,47653.125 L42854400,47782.5 L42940800,47911.875 L43027200,48041.25 L43113600,48170.625 L43200000,48300 L43286400,48429.375 L43372800,48558.75 L43459200,48688.125 L43545600,48817.5 L43632000,48946.875 L43718400,49076.25 L43804800,49205.625 L43891200,49335 L43977600,49464.375 L44064000,49593.75 L44150400,49723.125 L44236800,49852.5 L44323200,49981.875 L44409600,50111.25 L44496000,50240.625 L44582400,50370 L44668800,50499.375 L44755200,50628.75 L44841600,50758.125 L44928000,50887.5 L45014400,51016.875 L45100800,51146.25 L45187200,51275.625 L45273600,51405 L45360000,51534.375 L45446400,51663.75 L45532800,51793.125 L45619200,51922.5 L45705600,52051.875 L45792000,52181.25 L45878400,52310.625 L45964800,52440 L46051200,52569.375 L46137600,52698.75 L46224000,52828.125 L46310400,52957.5 L46396800,53086.875 L46483200,53216.25 L46569600,53345.625 L46656000,53475 L46742400,53604.375 L46828800,53733.75 L46915200,53863.125 L47001600,53992.5 L47088000,54121.875 L47174400,54251.25 L47260800,54380.625 L47347200,54510 L47433600,54639.375 L47520000,54768.75 L47606400,54898.125 L47692800,55027.5 L47779200,55156.875 L47865600,55286.25 L47952000,55415.625 L48038400,55545 L48124800,55674.375 L48211200,55803.75 L48297600,55933.125 L48384000,56062.5 L48470400,56191.875 L48556800,56321.25 L48643200,56450.625 L48729600,56580 L48816000,56709.375 L48902400,56838.75 L48988800,56968.125 L49075200,57097.5 L49161600,57226.875 L49248000,57356.25 L49334400,57485.625 L49420800,57615 L49507200,57744.375 L49593600,57873.75 L49680000,58003.125 L49766400,58132.5 L49852800,58261.875 L49939200,58391.25 L50025600,58520.625 L50112000,58650 L50198400,58779.375 L50284800,58908.75 L50371200,59038.125 L50457600,59167.5 L50544000,59296.875 L50630400,59426.25 L50716800,59555.625 L50803200,59685 L50889600,59814.375 L50976000,59943.75 L51062400,60073.125 L51148800,60202.5 L51235200,60331.875 L51321600,60461.25 L51408000,60590.625 L51494400,60720 L51580800,60849.375 L51667200,60978.75 L51753600,61108.125 L51840000,61237.5 L51926400,61366.875 L52012800,61496.25 L52099200,61625.625 L52185600,61755 L52272000,61884.375 L52358400,62013.75 L52444800,62143.125 L52531200,62272.5 L52617600,62401.875 L52704000,62531.25 L52790400,62660.625 L52876800,62790 L52963200,62919.375 L53049600,63048.75 L53136000,63178.125 L53222400,63307.5 L53308800,63436.875 L53395200,63566.25 L53481600,63695.625 L53568000,63825 L53654400,63954.375 L53740800,64083.75 L53827200,64213.125 L53913600,64342.5 L54000000,64471.875 L54086400,64601.25 L54172800,64730.625 L54259200,64860 L54345600,64989.375 L54432000,65118.75 L54518400,65248.125 L54604800,65377.5 L54691200,65506.875 L54777600,65636.25 L54864000,65765.625 L54950400,65895 L55036800,66024.375 L55123200,66153.75 L55209600,66283.125 L55296000,66412.5 L55382400,66541.875 L55468800,66671.25 L55555200,66800.625 L55641600,66930 L55728000,67059.375 L55814400,67188.75 L55900800,67318.125 L55987200,67447.5 L56073600,67576.875 L56160000,67706.25 L56246400,67835.625 L56332800,67965 L56419200,68094.375 L56505600,68223.75 L56592000,68353.125 L56678400,68482.5 L56764800,68611.875 L56851200,68741.25 L56937600,68870.625 L57024000,69000" fill="none" stroke="red"></path></g><g data-key="Investors"><path d="M0,0 L0,0 L15638400,4166.666666666667 L15724800,8333.333333333334 L15811200,12500 L15897600,16666.666666666668 L15984000,20833.333333333336 L16070400,25000.000000000004 L16156800,29166.66666666667 L16243200,33333.333333333336 L16329600,37500 L16416000,41666.666666666664 L16502400,45833.33333333333 L16588800,49999.99999999999 L16675200,54166.66666666666 L16761600,58333.33333333332 L16848000,62499.999999999985 L16934400,66666.66666666666 L17020800,70833.33333333333 L17107200,75000 L17193600,79166.66666666667 L17280000,83333.33333333334 L17366400,87500.00000000001 L17452800,91666.66666666669 L17539200,95833.33333333336 L17625600,100000.00000000003 L17712000,104166.6666666667 L17798400,108333.33333333337 L17884800,112500.00000000004 L17971200,116666.66666666672 L18057600,120833.33333333339 L18144000,125000.00000000006 L18230400,129166.66666666673 L18316800,133333.3333333334 L18403200,137500.00000000006 L18489600,141666.66666666672 L18576000,145833.33333333337 L18662400,150000.00000000003 L18748800,154166.6666666667 L18835200,158333.33333333334 L18921600,162500 L19008000,166666.66666666666 L19094400,170833.3333333333 L19180800,174999.99999999997 L19267200,179166.66666666663 L19353600,183333.33333333328 L19440000,187499.99999999994 L19526400,191666.6666666666 L19612800,195833.33333333326 L19699200,199999.9999999999 L19785600,204166.66666666657 L19872000,208333.33333333323 L19958400,212499.99999999988 L20044800,216666.66666666654 L20131200,220833.3333333332 L20217600,224999.99999999985 L20304000,229166.6666666665 L20390400,233333.33333333317 L20476800,237499.99999999983 L20563200,241666.66666666648 L20649600,245833.33333333314 L20736000,249999.9999999998 L20822400,254166.66666666645 L20908800,258333.3333333331 L20995200,262499.99999999977 L21081600,266666.66666666645 L21168000,270833.33333333314 L21254400,274999.9999999998 L21340800,279166.6666666665 L21427200,283333.3333333332 L21513600,287499.9999999999 L21600000,291666.66666666657 L21686400,295833.33333333326 L21772800,299999.99999999994 L21859200,304166.6666666666 L21945600,308333.3333333333 L22032000,312500 L22118400,316666.6666666667 L22204800,320833.3333333334 L22291200,325000.00000000006 L22377600,329166.66666666674 L22464000,333333.33333333343 L22550400,337500.0000000001 L22636800,341666.6666666668 L22723200,345833.3333333335 L22809600,350000.0000000002 L22896000,354166.66666666686 L22982400,358333.33333333355 L23068800,362500.00000000023 L23155200,366666.6666666669 L23241600,370833.3333333336 L23328000,375000.0000000003 L23414400,379166.666666667 L23500800,383333.33333333366 L23587200,387500.00000000035 L23673600,391666.66666666704 L23760000,395833.3333333337 L23846400,400000.0000000004 L23932800,404166.6666666671 L24019200,408333.3333333338 L24105600,412500.00000000047 L24192000,416666.66666666715 L24278400,420833.33333333384 L24364800,425000.0000000005 L24451200,429166.6666666672 L24537600,433333.3333333339 L24624000,437500.0000000006 L24710400,441666.66666666727 L24796800,445833.33333333395 L24883200,450000.00000000064 L24969600,454166.6666666673 L25056000,458333.333333334 L25142400,462500.0000000007 L25228800,466666.6666666674 L25315200,470833.33333333407 L25401600,475000.00000000076 L25488000,479166.66666666744 L25574400,483333.3333333341 L25660800,487500.0000000008 L25747200,491666.6666666675 L25833600,495833.3333333342 L25920000,500000.0000000009 L26006400,504166.66666666756 L26092800,508333.33333333425 L26179200,512500.00000000093 L26265600,516666.6666666676 L26352000,520833.3333333343 L26438400,525000.0000000009 L26524800,529166.6666666676 L26611200,533333.3333333342 L26697600,537500.0000000008 L26784000,541666.6666666674 L26870400,545833.3333333341 L26956800,550000.0000000007 L27043200,554166.6666666673 L27129600,558333.333333334 L27216000,562500.0000000006 L27302400,566666.6666666672 L27388800,570833.3333333338 L27475200,575000.0000000005 L27561600,579166.6666666671 L27648000,583333.3333333337 L27734400,587500.0000000003 L27820800,591666.666666667 L27907200,595833.3333333336 L27993600,600000.0000000002 L28080000,604166.6666666669 L28166400,608333.3333333335 L28252800,612500.0000000001 L28339200,616666.6666666667 L28425600,620833.3333333334 L28512000,625000 L28598400,629166.6666666666 L28684800,633333.3333333333 L28771200,637499.9999999999 L28857600,641666.6666666665 L28944000,645833.3333333331 L29030400,649999.9999999998 L29116800,654166.6666666664 L29203200,658333.333333333 L29289600,662499.9999999997 L29376000,666666.6666666663 L29462400,670833.3333333329 L29548800,674999.9999999995 L29635200,679166.6666666662 L29721600,683333.3333333328 L29808000,687499.9999999994 L29894400,691666.666666666 L29980800,695833.3333333327 L30067200,699999.9999999993 L30153600,704166.6666666659 L30240000,708333.3333333326 L30326400,712499.9999999992 L30412800,716666.6666666658 L30499200,720833.3333333324 L30585600,724999.9999999991 L30672000,729166.6666666657 L30758400,733333.3333333323 L30844800,737499.999999999 L30931200,741666.6666666656 L31017600,745833.3333333322 L31104000,749999.9999999988 L31190400,754166.6666666655 L31276800,758333.3333333321 L31363200,762499.9999999987 L31449600,766666.6666666653 L31536000,770833.333333332 L31622400,774999.9999999986 L31708800,779166.6666666652 L31795200,783333.3333333319 L31881600,787499.9999999985 L31968000,791666.6666666651 L32054400,795833.3333333317 L32140800,799999.9999999984 L32227200,804166.666666665 L32313600,808333.3333333316 L32400000,812499.9999999983 L32486400,816666.6666666649 L32572800,820833.3333333315 L32659200,824999.9999999981 L32745600,829166.6666666648 L32832000,833333.3333333314 L32918400,837499.999999998 L33004800,841666.6666666646 L33091200,845833.3333333313 L33177600,849999.9999999979 L33264000,854166.6666666645 L33350400,858333.3333333312 L33436800,862499.9999999978 L33523200,866666.6666666644 L33609600,870833.333333331 L33696000,874999.9999999977 L33782400,879166.6666666643 L33868800,883333.3333333309 L33955200,887499.9999999976 L34041600,891666.6666666642 L34128000,895833.3333333308 L34214400,899999.9999999974 L34300800,904166.6666666641 L34387200,908333.3333333307 L34473600,912499.9999999973 L34560000,916666.666666664 L34646400,920833.3333333306 L34732800,924999.9999999972 L34819200,929166.6666666638 L34905600,933333.3333333305 L34992000,937499.9999999971 L35078400,941666.6666666637 L35164800,945833.3333333303 L35251200,949999.999999997 L35337600,954166.6666666636 L35424000,958333.3333333302 L35510400,962499.9999999969 L35596800,966666.6666666635 L35683200,970833.3333333301 L35769600,974999.9999999967 L35856000,979166.6666666634 L35942400,983333.33333333 L36028800,987499.9999999966 L36115200,991666.6666666633 L36201600,995833.3333333299 L36288000,999999.9999999965 L36374400,1004166.6666666631 L36460800,1008333.3333333298 L36547200,1012499.9999999964 L36633600,1016666.666666663 L36720000,1020833.3333333296 L36806400,1024999.9999999963 L36892800,1029166.6666666629 L36979200,1033333.3333333295 L37065600,1037499.9999999962 L37152000,1041666.6666666628 L37238400,1045833.3333333294 L37324800,1049999.999999996 L37411200,1054166.6666666628 L37497600,1058333.3333333295 L37584000,1062499.9999999963 L37670400,1066666.666666663 L37756800,1070833.3333333298 L37843200,1074999.9999999965 L37929600,1079166.6666666633 L38016000,1083333.33333333 L38102400,1087499.9999999967 L38188800,1091666.6666666635 L38275200,1095833.3333333302 L38361600,1099999.999999997 L38448000,1104166.6666666637 L38534400,1108333.3333333305 L38620800,1112499.9999999972 L38707200,1116666.666666664 L38793600,1120833.3333333307 L38880000,1124999.9999999974 L38966400,1129166.6666666642 L39052800,1133333.333333331 L39139200,1137499.9999999977 L39225600,1141666.6666666644 L39312000,1145833.3333333312 L39398400,1149999.999999998 L39484800,1154166.6666666646 L39571200,1158333.3333333314 L39657600,1162499.9999999981 L39744000,1166666.6666666649 L39830400,1170833.3333333316 L39916800,1174999.9999999984 L40003200,1179166.666666665 L40089600,1183333.3333333319 L40176000,1187499.9999999986 L40262400,1191666.6666666653 L40348800,1195833.333333332 L40435200,1199999.9999999988 L40521600,1204166.6666666656 L40608000,1208333.3333333323 L40694400,1212499.999999999 L40780800,1216666.6666666658 L40867200,1220833.3333333326 L40953600,1224999.9999999993 L41040000,1229166.666666666 L41126400,1233333.3333333328 L41212800,1237499.9999999995 L41299200,1241666.6666666663 L41385600,1245833.333333333 L41472000,1249999.9999999998 L41558400,1254166.6666666665 L41644800,1258333.3333333333 L41731200,1262500 L41817600,1266666.6666666667 L41904000,1270833.3333333335 L41990400,1275000.0000000002 L42076800,1279166.666666667 L42163200,1283333.3333333337 L42249600,1287500.0000000005 L42336000,1291666.6666666672 L42422400,1295833.333333334 L42508800,1300000.0000000007 L42595200,1304166.6666666674 L42681600,1308333.3333333342 L42768000,1312500.000000001 L42854400,1316666.6666666677 L42940800,1320833.3333333344 L43027200,1325000.0000000012 L43113600,1329166.666666668 L43200000,1333333.3333333347 L43286400,1337500.0000000014 L43372800,1341666.6666666681 L43459200,1345833.333333335 L43545600,1350000.0000000016 L43632000,1354166.6666666684 L43718400,1358333.3333333351 L43804800,1362500.0000000019 L43891200,1366666.6666666686 L43977600,1370833.3333333354 L44064000,1375000.000000002 L44150400,1379166.6666666688 L44236800,1383333.3333333356 L44323200,1387500.0000000023 L44409600,1391666.666666669 L44496000,1395833.3333333358 L44582400,1400000.0000000026 L44668800,1404166.6666666693 L44755200,1408333.333333336 L44841600,1412500.0000000028 L44928000,1416666.6666666695 L45014400,1420833.3333333363 L45100800,1425000.000000003 L45187200,1429166.6666666698 L45273600,1433333.3333333365 L45360000,1437500.0000000033 L45446400,1441666.66666667 L45532800,1445833.3333333367 L45619200,1450000.0000000035 L45705600,1454166.6666666702 L45792000,1458333.333333337 L45878400,1462500.0000000037 L45964800,1466666.6666666705 L46051200,1470833.3333333372 L46137600,1475000.000000004 L46224000,1479166.6666666707 L46310400,1483333.3333333374 L46396800,1487500.0000000042 L46483200,1491666.666666671 L46569600,1495833.3333333377 L46656000,1500000.0000000044 L46742400,1504166.6666666712 L46828800,1508333.333333338 L46915200,1512500.0000000047 L47001600,1516666.6666666714 L47088000,1520833.3333333381 L47174400,1525000.000000005 L47260800,1529166.6666666716 L47347200,1533333.3333333384 L47433600,1537500.0000000051 L47520000,1541666.6666666719 L47606400,1545833.3333333386 L47692800,1550000.0000000054 L47779200,1554166.666666672 L47865600,1558333.3333333388 L47952000,1562500.0000000056 L48038400,1566666.6666666723 L48124800,1570833.333333339 L48211200,1575000.0000000058 L48297600,1579166.6666666726 L48384000,1583333.3333333393 L48470400,1587500.000000006 L48556800,1591666.6666666728 L48643200,1595833.3333333395 L48729600,1600000.0000000063 L48816000,1604166.666666673 L48902400,1608333.3333333398 L48988800,1612500.0000000065 L49075200,1616666.6666666733 L49161600,1620833.33333334 L49248000,1625000.0000000068 L49334400,1629166.6666666735 L49420800,1633333.3333333402 L49507200,1637500.000000007 L49593600,1641666.6666666737 L49680000,1645833.3333333405 L49766400,1650000.0000000072 L49852800,1654166.666666674 L49939200,1658333.3333333407 L50025600,1662500.0000000075 L50112000,1666666.6666666742 L50198400,1670833.333333341 L50284800,1675000.0000000077 L50371200,1679166.6666666744 L50457600,1683333.3333333412 L50544000,1687500.000000008 L50630400,1691666.6666666747 L50716800,1695833.3333333414 L50803200,1700000.0000000081 L50889600,1704166.666666675 L50976000,1708333.3333333416 L51062400,1712500.0000000084 L51148800,1716666.6666666751 L51235200,1720833.3333333419 L51321600,1725000.0000000086 L51408000,1729166.6666666754 L51494400,1733333.333333342 L51580800,1737500.0000000088 L51667200,1741666.6666666756 L51753600,1745833.3333333423 L51840000,1750000.000000009 L51926400,1754166.6666666758 L52012800,1758333.3333333426 L52099200,1762500.0000000093 L52185600,1766666.666666676 L52272000,1770833.3333333428 L52358400,1775000.0000000095 L52444800,1779166.6666666763 L52531200,1783333.333333343 L52617600,1787500.0000000098 L52704000,1791666.6666666765 L52790400,1795833.3333333433 L52876800,1800000.00000001 L52963200,1804166.6666666768 L53049600,1808333.3333333435 L53136000,1812500.0000000102 L53222400,1816666.666666677 L53308800,1820833.3333333437 L53395200,1825000.0000000105 L53481600,1829166.6666666772 L53568000,1833333.333333344 L53654400,1837500.0000000107 L53740800,1841666.6666666775 L53827200,1845833.3333333442 L53913600,1850000.000000011 L54000000,1854166.6666666777 L54086400,1858333.3333333444 L54172800,1862500.0000000112 L54259200,1866666.666666678 L54345600,1870833.3333333447 L54432000,1875000.0000000114 L54518400,1879166.6666666782 L54604800,1883333.333333345 L54691200,1887500.0000000116 L54777600,1891666.6666666784 L54864000,1895833.3333333451 L54950400,1900000.0000000119 L55036800,1904166.6666666786 L55123200,1908333.3333333454 L55209600,1912500.000000012 L55296000,1916666.6666666789 L55382400,1920833.3333333456 L55468800,1925000.0000000123 L55555200,1929166.666666679 L55641600,1933333.3333333458 L55728000,1937500.0000000126 L55814400,1941666.6666666793 L55900800,1945833.333333346 L55987200,1950000.0000000128 L56073600,1954166.6666666795 L56160000,1958333.3333333463 L56246400,1962500.000000013 L56332800,1966666.6666666798 L56419200,1970833.3333333465 L56505600,1975000.0000000133 L56592000,1979166.66666668 L56678400,1983333.3333333468 L56764800,1987500.0000000135 L56851200,1991666.6666666802 L56937600,1995833.333333347 L57024000,1999999.9999999998" fill="none" stroke="red"></path></g><g data-key="Advisor1"><path d="M0,0 L0,0 L15638400,104.16666666666667 L15724800,208.33333333333334 L15811200,312.5 L15897600,416.6666666666667 L15984000,520.8333333333334 L16070400,625 L16156800,729.1666666666666 L16243200,833.3333333333333 L16329600,937.4999999999999 L16416000,1041.6666666666665 L16502400,1145.8333333333333 L16588800,1250 L16675200,1354.1666666666667 L16761600,1458.3333333333335 L16848000,1562.5000000000002 L16934400,1666.666666666667 L17020800,1770.8333333333337 L17107200,1875.0000000000005 L17193600,1979.1666666666672 L17280000,2083.333333333334 L17366400,2187.5000000000005 L17452800,2291.666666666667 L17539200,2395.8333333333335 L17625600,2500 L17712000,2604.1666666666665 L17798400,2708.333333333333 L17884800,2812.4999999999995 L17971200,2916.666666666666 L18057600,3020.8333333333326 L18144000,3124.999999999999 L18230400,3229.1666666666656 L18316800,3333.333333333332 L18403200,3437.4999999999986 L18489600,3541.666666666665 L18576000,3645.8333333333317 L18662400,3749.999999999998 L18748800,3854.1666666666647 L18835200,3958.333333333331 L18921600,4062.4999999999977 L19008000,4166.666666666664 L19094400,4270.833333333331 L19180800,4374.999999999998 L19267200,4479.166666666665 L19353600,4583.333333333332 L19440000,4687.499999999999 L19526400,4791.666666666666 L19612800,4895.833333333333 L19699200,5000 L19785600,5104.166666666667 L19872000,5208.333333333334 L19958400,5312.500000000001 L20044800,5416.666666666668 L20131200,5520.833333333335 L20217600,5625.000000000002 L20304000,5729.166666666669 L20390400,5833.333333333336 L20476800,5937.500000000003 L20563200,6041.66666666667 L20649600,6145.833333333337 L20736000,6250.000000000004 L20822400,6354.166666666671 L20908800,6458.333333333338 L20995200,6562.500000000005 L21081600,6666.6666666666715 L21168000,6770.8333333333385 L21254400,6875.0000000000055 L21340800,6979.166666666672 L21427200,7083.333333333339 L21513600,7187.500000000006 L21600000,7291.666666666673 L21686400,7395.83333333334 L21772800,7500.000000000007 L21859200,7604.166666666674 L21945600,7708.333333333341 L22032000,7812.500000000008 L22118400,7916.666666666675 L22204800,8020.833333333342 L22291200,8125.000000000009 L22377600,8229.166666666675 L22464000,8333.333333333341 L22550400,8437.500000000007 L22636800,8541.666666666673 L22723200,8645.83333333334 L22809600,8750.000000000005 L22896000,8854.166666666672 L22982400,8958.333333333338 L23068800,9062.500000000004 L23155200,9166.66666666667 L23241600,9270.833333333336 L23328000,9375.000000000002 L23414400,9479.166666666668 L23500800,9583.333333333334 L23587200,9687.5 L23673600,9791.666666666666 L23760000,9895.833333333332 L23846400,9999.999999999998 L23932800,10104.166666666664 L24019200,10208.33333333333 L24105600,10312.499999999996 L24192000,10416.666666666662 L24278400,10520.833333333328 L24364800,10624.999999999995 L24451200,10729.16666666666 L24537600,10833.333333333327 L24624000,10937.499999999993 L24710400,11041.666666666659 L24796800,11145.833333333325 L24883200,11249.99999999999 L24969600,11354.166666666657 L25056000,11458.333333333323 L25142400,11562.499999999989 L25228800,11666.666666666655 L25315200,11770.833333333321 L25401600,11874.999999999987 L25488000,11979.166666666653 L25574400,12083.33333333332 L25660800,12187.499999999985 L25747200,12291.666666666652 L25833600,12395.833333333318 L25920000,12499.999999999984 L26006400,12604.16666666665 L26092800,12708.333333333316 L26179200,12812.499999999982 L26265600,12916.666666666648 L26352000,13020.833333333314 L26438400,13124.99999999998 L26524800,13229.166666666646 L26611200,13333.333333333312 L26697600,13437.499999999978 L26784000,13541.666666666644 L26870400,13645.83333333331 L26956800,13749.999999999976 L27043200,13854.166666666642 L27129600,13958.333333333308 L27216000,14062.499999999975 L27302400,14166.66666666664 L27388800,14270.833333333307 L27475200,14374.999999999973 L27561600,14479.166666666639 L27648000,14583.333333333305 L27734400,14687.49999999997 L27820800,14791.666666666637 L27907200,14895.833333333303 L27993600,14999.999999999969 L28080000,15104.166666666635 L28166400,15208.333333333301 L28252800,15312.499999999967 L28339200,15416.666666666633 L28425600,15520.8333333333 L28512000,15624.999999999965 L28598400,15729.166666666631 L28684800,15833.333333333298 L28771200,15937.499999999964 L28857600,16041.66666666663 L28944000,16145.833333333296 L29030400,16249.999999999962 L29116800,16354.166666666628 L29203200,16458.333333333296 L29289600,16562.499999999964 L29376000,16666.66666666663 L29462400,16770.8333333333 L29548800,16874.999999999967 L29635200,16979.166666666635 L29721600,17083.333333333303 L29808000,17187.49999999997 L29894400,17291.66666666664 L29980800,17395.833333333307 L30067200,17499.999999999975 L30153600,17604.166666666642 L30240000,17708.33333333331 L30326400,17812.499999999978 L30412800,17916.666666666646 L30499200,18020.833333333314 L30585600,18124.99999999998 L30672000,18229.16666666665 L30758400,18333.333333333318 L30844800,18437.499999999985 L30931200,18541.666666666653 L31017600,18645.83333333332 L31104000,18749.99999999999 L31190400,18854.166666666657 L31276800,18958.333333333325 L31363200,19062.499999999993 L31449600,19166.66666666666 L31536000,19270.83333333333 L31622400,19374.999999999996 L31708800,19479.166666666664 L31795200,19583.333333333332 L31881600,19687.5 L31968000,19791.666666666668 L32054400,19895.833333333336 L32140800,20000.000000000004 L32227200,20104.16666666667 L32313600,20208.33333333334 L32400000,20312.500000000007 L32486400,20416.666666666675 L32572800,20520.833333333343 L32659200,20625.00000000001 L32745600,20729.16666666668 L32832000,20833.333333333347 L32918400,20937.500000000015 L33004800,21041.666666666682 L33091200,21145.83333333335 L33177600,21250.00000000002 L33264000,21354.166666666686 L33350400,21458.333333333354 L33436800,21562.500000000022 L33523200,21666.66666666669 L33609600,21770.833333333358 L33696000,21875.000000000025 L33782400,21979.166666666693 L33868800,22083.33333333336 L33955200,22187.50000000003 L34041600,22291.666666666697 L34128000,22395.833333333365 L34214400,22500.000000000033 L34300800,22604.1666666667 L34387200,22708.33333333337 L34473600,22812.500000000036 L34560000,22916.666666666704 L34646400,23020.833333333372 L34732800,23125.00000000004 L34819200,23229.166666666708 L34905600,23333.333333333376 L34992000,23437.500000000044 L35078400,23541.66666666671 L35164800,23645.83333333338 L35251200,23750.000000000047 L35337600,23854.166666666715 L35424000,23958.333333333383 L35510400,24062.50000000005 L35596800,24166.66666666672 L35683200,24270.833333333387 L35769600,24375.000000000055 L35856000,24479.166666666722 L35942400,24583.33333333339 L36028800,24687.50000000006 L36115200,24791.666666666726 L36201600,24895.833333333394 L36288000,25000.000000000062 L36374400,25104.16666666673 L36460800,25208.333333333398 L36547200,25312.500000000065 L36633600,25416.666666666733 L36720000,25520.8333333334 L36806400,25625.00000000007 L36892800,25729.166666666737 L36979200,25833.333333333405 L37065600,25937.500000000073 L37152000,26041.66666666674 L37238400,26145.83333333341 L37324800,26250.000000000076 L37411200,26354.166666666744 L37497600,26458.333333333412 L37584000,26562.50000000008 L37670400,26666.666666666748 L37756800,26770.833333333416 L37843200,26875.000000000084 L37929600,26979.16666666675 L38016000,27083.33333333342 L38102400,27187.500000000087 L38188800,27291.666666666755 L38275200,27395.833333333423 L38361600,27500.00000000009 L38448000,27604.16666666676 L38534400,27708.333333333427 L38620800,27812.500000000095 L38707200,27916.666666666762 L38793600,28020.83333333343 L38880000,28125.0000000001 L38966400,28229.166666666766 L39052800,28333.333333333434 L39139200,28437.500000000102 L39225600,28541.66666666677 L39312000,28645.833333333438 L39398400,28750.000000000106 L39484800,28854.166666666773 L39571200,28958.33333333344 L39657600,29062.50000000011 L39744000,29166.666666666777 L39830400,29270.833333333445 L39916800,29375.000000000113 L40003200,29479.16666666678 L40089600,29583.33333333345 L40176000,29687.500000000116 L40262400,29791.666666666784 L40348800,29895.833333333452 L40435200,30000.00000000012 L40521600,30104.166666666788 L40608000,30208.333333333456 L40694400,30312.500000000124 L40780800,30416.66666666679 L40867200,30520.83333333346 L40953600,30625.000000000127 L41040000,30729.166666666795 L41126400,30833.333333333463 L41212800,30937.50000000013 L41299200,31041.6666666668 L41385600,31145.833333333467 L41472000,31250.000000000135 L41558400,31354.166666666802 L41644800,31458.33333333347 L41731200,31562.50000000014 L41817600,31666.666666666806 L41904000,31770.833333333474 L41990400,31875.000000000142 L42076800,31979.16666666681 L42163200,32083.333333333478 L42249600,32187.500000000146 L42336000,32291.666666666813 L42422400,32395.83333333348 L42508800,32500.00000000015 L42595200,32604.166666666817 L42681600,32708.333333333485 L42768000,32812.50000000015 L42854400,32916.66666666682 L42940800,33020.83333333348 L43027200,33125.000000000146 L43113600,33229.16666666681 L43200000,33333.333333333474 L43286400,33437.50000000014 L43372800,33541.6666666668 L43459200,33645.83333333347 L43545600,33750.00000000013 L43632000,33854.166666666795 L43718400,33958.33333333346 L43804800,34062.500000000124 L43891200,34166.66666666679 L43977600,34270.83333333345 L44064000,34375.00000000012 L44150400,34479.16666666678 L44236800,34583.333333333445 L44323200,34687.50000000011 L44409600,34791.66666666677 L44496000,34895.83333333344 L44582400,35000.0000000001 L44668800,35104.166666666766 L44755200,35208.33333333343 L44841600,35312.500000000095 L44928000,35416.66666666676 L45014400,35520.83333333342 L45100800,35625.00000000009 L45187200,35729.16666666675 L45273600,35833.333333333416 L45360000,35937.50000000008 L45446400,36041.666666666744 L45532800,36145.83333333341 L45619200,36250.00000000007 L45705600,36354.16666666674 L45792000,36458.3333333334 L45878400,36562.500000000065 L45964800,36666.66666666673 L46051200,36770.833333333394 L46137600,36875.00000000006 L46224000,36979.16666666672 L46310400,37083.33333333339 L46396800,37187.50000000005 L46483200,37291.666666666715 L46569600,37395.83333333338 L46656000,37500.000000000044 L46742400,37604.16666666671 L46828800,37708.33333333337 L46915200,37812.50000000004 L47001600,37916.6666666667 L47088000,38020.833333333365 L47174400,38125.00000000003 L47260800,38229.16666666669 L47347200,38333.33333333336 L47433600,38437.50000000002 L47520000,38541.666666666686 L47606400,38645.83333333335 L47692800,38750.000000000015 L47779200,38854.16666666668 L47865600,38958.33333333334 L47952000,39062.50000000001 L48038400,39166.66666666667 L48124800,39270.833333333336 L48211200,39375 L48297600,39479.166666666664 L48384000,39583.33333333333 L48470400,39687.49999999999 L48556800,39791.66666666666 L48643200,39895.83333333332 L48729600,39999.999999999985 L48816000,40104.16666666665 L48902400,40208.333333333314 L48988800,40312.49999999998 L49075200,40416.66666666664 L49161600,40520.83333333331 L49248000,40624.99999999997 L49334400,40729.166666666635 L49420800,40833.3333333333 L49507200,40937.49999999996 L49593600,41041.66666666663 L49680000,41145.83333333329 L49766400,41249.999999999956 L49852800,41354.16666666662 L49939200,41458.333333333285 L50025600,41562.49999999995 L50112000,41666.66666666661 L50198400,41770.83333333328 L50284800,41874.99999999994 L50371200,41979.166666666606 L50457600,42083.33333333327 L50544000,42187.499999999935 L50630400,42291.6666666666 L50716800,42395.83333333326 L50803200,42499.99999999993 L50889600,42604.16666666659 L50976000,42708.333333333256 L51062400,42812.49999999992 L51148800,42916.666666666584 L51235200,43020.83333333325 L51321600,43124.99999999991 L51408000,43229.16666666658 L51494400,43333.33333333324 L51580800,43437.499999999905 L51667200,43541.66666666657 L51753600,43645.833333333234 L51840000,43749.9999999999 L51926400,43854.16666666656 L52012800,43958.33333333323 L52099200,44062.49999999989 L52185600,44166.666666666555 L52272000,44270.83333333322 L52358400,44374.99999999988 L52444800,44479.16666666655 L52531200,44583.33333333321 L52617600,44687.499999999876 L52704000,44791.66666666654 L52790400,44895.833333333205 L52876800,44999.99999999987 L52963200,45104.16666666653 L53049600,45208.3333333332 L53136000,45312.49999999986 L53222400,45416.666666666526 L53308800,45520.83333333319 L53395200,45624.999999999854 L53481600,45729.16666666652 L53568000,45833.33333333318 L53654400,45937.49999999985 L53740800,46041.66666666651 L53827200,46145.833333333176 L53913600,46249.99999999984 L54000000,46354.166666666504 L54086400,46458.33333333317 L54172800,46562.49999999983 L54259200,46666.6666666665 L54345600,46770.83333333316 L54432000,46874.999999999825 L54518400,46979.16666666649 L54604800,47083.333333333154 L54691200,47187.49999999982 L54777600,47291.66666666648 L54864000,47395.83333333315 L54950400,47499.99999999981 L55036800,47604.166666666475 L55123200,47708.33333333314 L55209600,47812.4999999998 L55296000,47916.66666666647 L55382400,48020.83333333313 L55468800,48124.999999999796 L55555200,48229.16666666646 L55641600,48333.333333333125 L55728000,48437.49999999979 L55814400,48541.66666666645 L55900800,48645.83333333312 L55987200,48749.99999999978 L56073600,48854.166666666446 L56160000,48958.33333333311 L56246400,49062.499999999774 L56332800,49166.66666666644 L56419200,49270.8333333331 L56505600,49374.99999999977 L56592000,49479.16666666643 L56678400,49583.333333333096 L56764800,49687.49999999976 L56851200,49791.666666666424 L56937600,49895.83333333309 L57024000,49999.99999999975" fill="none" stroke="red"></path></g><g data-key="Advisor2"><path d="M0,0 L0,0 L15638400,104.16666666666667 L15724800,208.33333333333334 L15811200,312.5 L15897600,416.6666666666667 L15984000,520.8333333333334 L16070400,625 L16156800,729.1666666666666 L16243200,833.3333333333333 L16329600,937.4999999999999 L16416000,1041.6666666666665 L16502400,1145.8333333333333 L16588800,1250 L16675200,1354.1666666666667 L16761600,1458.3333333333335 L16848000,1562.5000000000002 L16934400,1666.666666666667 L17020800,1770.8333333333337 L17107200,1875.0000000000005 L17193600,1979.1666666666672 L17280000,2083.333333333334 L17366400,2187.5000000000005 L17452800,2291.666666666667 L17539200,2395.8333333333335 L17625600,2500 L17712000,2604.1666666666665 L17798400,2708.333333333333 L17884800,2812.4999999999995 L17971200,2916.666666666666 L18057600,3020.8333333333326 L18144000,3124.999999999999 L18230400,3229.1666666666656 L18316800,3333.333333333332 L18403200,3437.4999999999986 L18489600,3541.666666666665 L18576000,3645.8333333333317 L18662400,3749.999999999998 L18748800,3854.1666666666647 L18835200,3958.333333333331 L18921600,4062.4999999999977 L19008000,4166.666666666664 L19094400,4270.833333333331 L19180800,4374.999999999998 L19267200,4479.166666666665 L19353600,4583.333333333332 L19440000,4687.499999999999 L19526400,4791.666666666666 L19612800,4895.833333333333 L19699200,5000 L19785600,5104.166666666667 L19872000,5208.333333333334 L19958400,5312.500000000001 L20044800,5416.666666666668 L20131200,5520.833333333335 L20217600,5625.000000000002 L20304000,5729.166666666669 L20390400,5833.333333333336 L20476800,5937.500000000003 L20563200,6041.66666666667 L20649600,6145.833333333337 L20736000,6250.000000000004 L20822400,6354.166666666671 L20908800,6458.333333333338 L20995200,6562.500000000005 L21081600,6666.6666666666715 L21168000,6770.8333333333385 L21254400,6875.0000000000055 L21340800,6979.166666666672 L21427200,7083.333333333339 L21513600,7187.500000000006 L21600000,7291.666666666673 L21686400,7395.83333333334 L21772800,7500.000000000007 L21859200,7604.166666666674 L21945600,7708.333333333341 L22032000,7812.500000000008 L22118400,7916.666666666675 L22204800,8020.833333333342 L22291200,8125.000000000009 L22377600,8229.166666666675 L22464000,8333.333333333341 L22550400,8437.500000000007 L22636800,8541.666666666673 L22723200,8645.83333333334 L22809600,8750.000000000005 L22896000,8854.166666666672 L22982400,8958.333333333338 L23068800,9062.500000000004 L23155200,9166.66666666667 L23241600,9270.833333333336 L23328000,9375.000000000002 L23414400,9479.166666666668 L23500800,9583.333333333334 L23587200,9687.5 L23673600,9791.666666666666 L23760000,9895.833333333332 L23846400,9999.999999999998 L23932800,10104.166666666664 L24019200,10208.33333333333 L24105600,10312.499999999996 L24192000,10416.666666666662 L24278400,10520.833333333328 L24364800,10624.999999999995 L24451200,10729.16666666666 L24537600,10833.333333333327 L24624000,10937.499999999993 L24710400,11041.666666666659 L24796800,11145.833333333325 L24883200,11249.99999999999 L24969600,11354.166666666657 L25056000,11458.333333333323 L25142400,11562.499999999989 L25228800,11666.666666666655 L25315200,11770.833333333321 L25401600,11874.999999999987 L25488000,11979.166666666653 L25574400,12083.33333333332 L25660800,12187.499999999985 L25747200,12291.666666666652 L25833600,12395.833333333318 L25920000,12499.999999999984 L26006400,12604.16666666665 L26092800,12708.333333333316 L26179200,12812.499999999982 L26265600,12916.666666666648 L26352000,13020.833333333314 L26438400,13124.99999999998 L26524800,13229.166666666646 L26611200,13333.333333333312 L26697600,13437.499999999978 L26784000,13541.666666666644 L26870400,13645.83333333331 L26956800,13749.999999999976 L27043200,13854.166666666642 L27129600,13958.333333333308 L27216000,14062.499999999975 L27302400,14166.66666666664 L27388800,14270.833333333307 L27475200,14374.999999999973 L27561600,14479.166666666639 L27648000,14583.333333333305 L27734400,14687.49999999997 L27820800,14791.666666666637 L27907200,14895.833333333303 L27993600,14999.999999999969 L28080000,15104.166666666635 L28166400,15208.333333333301 L28252800,15312.499999999967 L28339200,15416.666666666633 L28425600,15520.8333333333 L28512000,15624.999999999965 L28598400,15729.166666666631 L28684800,15833.333333333298 L28771200,15937.499999999964 L28857600,16041.66666666663 L28944000,16145.833333333296 L29030400,16249.999999999962 L29116800,16354.166666666628 L29203200,16458.333333333296 L29289600,16562.499999999964 L29376000,16666.66666666663 L29462400,16770.8333333333 L29548800,16874.999999999967 L29635200,16979.166666666635 L29721600,17083.333333333303 L29808000,17187.49999999997 L29894400,17291.66666666664 L29980800,17395.833333333307 L30067200,17499.999999999975 L30153600,17604.166666666642 L30240000,17708.33333333331 L30326400,17812.499999999978 L30412800,17916.666666666646 L30499200,18020.833333333314 L30585600,18124.99999999998 L30672000,18229.16666666665 L30758400,18333.333333333318 L30844800,18437.499999999985 L30931200,18541.666666666653 L31017600,18645.83333333332 L31104000,18749.99999999999 L31190400,18854.166666666657 L31276800,18958.333333333325 L31363200,19062.499999999993 L31449600,19166.66666666666 L31536000,19270.83333333333 L31622400,19374.999999999996 L31708800,19479.166666666664 L31795200,19583.333333333332 L31881600,19687.5 L31968000,19791.666666666668 L32054400,19895.833333333336 L32140800,20000.000000000004 L32227200,20104.16666666667 L32313600,20208.33333333334 L32400000,20312.500000000007 L32486400,20416.666666666675 L32572800,20520.833333333343 L32659200,20625.00000000001 L32745600,20729.16666666668 L32832000,20833.333333333347 L32918400,20937.500000000015 L33004800,21041.666666666682 L33091200,21145.83333333335 L33177600,21250.00000000002 L33264000,21354.166666666686 L33350400,21458.333333333354 L33436800,21562.500000000022 L33523200,21666.66666666669 L33609600,21770.833333333358 L33696000,21875.000000000025 L33782400,21979.166666666693 L33868800,22083.33333333336 L33955200,22187.50000000003 L34041600,22291.666666666697 L34128000,22395.833333333365 L34214400,22500.000000000033 L34300800,22604.1666666667 L34387200,22708.33333333337 L34473600,22812.500000000036 L34560000,22916.666666666704 L34646400,23020.833333333372 L34732800,23125.00000000004 L34819200,23229.166666666708 L34905600,23333.333333333376 L34992000,23437.500000000044 L35078400,23541.66666666671 L35164800,23645.83333333338 L35251200,23750.000000000047 L35337600,23854.166666666715 L35424000,23958.333333333383 L35510400,24062.50000000005 L35596800,24166.66666666672 L35683200,24270.833333333387 L35769600,24375.000000000055 L35856000,24479.166666666722 L35942400,24583.33333333339 L36028800,24687.50000000006 L36115200,24791.666666666726 L36201600,24895.833333333394 L36288000,25000.000000000062 L36374400,25104.16666666673 L36460800,25208.333333333398 L36547200,25312.500000000065 L36633600,25416.666666666733 L36720000,25520.8333333334 L36806400,25625.00000000007 L36892800,25729.166666666737 L36979200,25833.333333333405 L37065600,25937.500000000073 L37152000,26041.66666666674 L37238400,26145.83333333341 L37324800,26250.000000000076 L37411200,26354.166666666744 L37497600,26458.333333333412 L37584000,26562.50000000008 L37670400,26666.666666666748 L37756800,26770.833333333416 L37843200,26875.000000000084 L37929600,26979.16666666675 L38016000,27083.33333333342 L38102400,27187.500000000087 L38188800,27291.666666666755 L38275200,27395.833333333423 L38361600,27500.00000000009 L38448000,27604.16666666676 L38534400,27708.333333333427 L38620800,27812.500000000095 L38707200,27916.666666666762 L38793600,28020.83333333343 L38880000,28125.0000000001 L38966400,28229.166666666766 L39052800,28333.333333333434 L39139200,28437.500000000102 L39225600,28541.66666666677 L39312000,28645.833333333438 L39398400,28750.000000000106 L39484800,28854.166666666773 L39571200,28958.33333333344 L39657600,29062.50000000011 L39744000,29166.666666666777 L39830400,29270.833333333445 L39916800,29375.000000000113 L40003200,29479.16666666678 L40089600,29583.33333333345 L40176000,29687.500000000116 L40262400,29791.666666666784 L40348800,29895.833333333452 L40435200,30000.00000000012 L40521600,30104.166666666788 L40608000,30208.333333333456 L40694400,30312.500000000124 L40780800,30416.66666666679 L40867200,30520.83333333346 L40953600,30625.000000000127 L41040000,30729.166666666795 L41126400,30833.333333333463 L41212800,30937.50000000013 L41299200,31041.6666666668 L41385600,31145.833333333467 L41472000,31250.000000000135 L41558400,31354.166666666802 L41644800,31458.33333333347 L41731200,31562.50000000014 L41817600,31666.666666666806 L41904000,31770.833333333474 L41990400,31875.000000000142 L42076800,31979.16666666681 L42163200,32083.333333333478 L42249600,32187.500000000146 L42336000,32291.666666666813 L42422400,32395.83333333348 L42508800,32500.00000000015 L42595200,32604.166666666817 L42681600,32708.333333333485 L42768000,32812.50000000015 L42854400,32916.66666666682 L42940800,33020.83333333348 L43027200,33125.000000000146 L43113600,33229.16666666681 L43200000,33333.333333333474 L43286400,33437.50000000014 L43372800,33541.6666666668 L43459200,33645.83333333347 L43545600,33750.00000000013 L43632000,33854.166666666795 L43718400,33958.33333333346 L43804800,34062.500000000124 L43891200,34166.66666666679 L43977600,34270.83333333345 L44064000,34375.00000000012 L44150400,34479.16666666678 L44236800,34583.333333333445 L44323200,34687.50000000011 L44409600,34791.66666666677 L44496000,34895.83333333344 L44582400,35000.0000000001 L44668800,35104.166666666766 L44755200,35208.33333333343 L44841600,35312.500000000095 L44928000,35416.66666666676 L45014400,35520.83333333342 L45100800,35625.00000000009 L45187200,35729.16666666675 L45273600,35833.333333333416 L45360000,35937.50000000008 L45446400,36041.666666666744 L45532800,36145.83333333341 L45619200,36250.00000000007 L45705600,36354.16666666674 L45792000,36458.3333333334 L45878400,36562.500000000065 L45964800,36666.66666666673 L46051200,36770.833333333394 L46137600,36875.00000000006 L46224000,36979.16666666672 L46310400,37083.33333333339 L46396800,37187.50000000005 L46483200,37291.666666666715 L46569600,37395.83333333338 L46656000,37500.000000000044 L46742400,37604.16666666671 L46828800,37708.33333333337 L46915200,37812.50000000004 L47001600,37916.6666666667 L47088000,38020.833333333365 L47174400,38125.00000000003 L47260800,38229.16666666669 L47347200,38333.33333333336 L47433600,38437.50000000002 L47520000,38541.666666666686 L47606400,38645.83333333335 L47692800,38750.000000000015 L47779200,38854.16666666668 L47865600,38958.33333333334 L47952000,39062.50000000001 L48038400,39166.66666666667 L48124800,39270.833333333336 L48211200,39375 L48297600,39479.166666666664 L48384000,39583.33333333333 L48470400,39687.49999999999 L48556800,39791.66666666666 L48643200,39895.83333333332 L48729600,39999.999999999985 L48816000,40104.16666666665 L48902400,40208.333333333314 L48988800,40312.49999999998 L49075200,40416.66666666664 L49161600,40520.83333333331 L49248000,40624.99999999997 L49334400,40729.166666666635 L49420800,40833.3333333333 L49507200,40937.49999999996 L49593600,41041.66666666663 L49680000,41145.83333333329 L49766400,41249.999999999956 L49852800,41354.16666666662 L49939200,41458.333333333285 L50025600,41562.49999999995 L50112000,41666.66666666661 L50198400,41770.83333333328 L50284800,41874.99999999994 L50371200,41979.166666666606 L50457600,42083.33333333327 L50544000,42187.499999999935 L50630400,42291.6666666666 L50716800,42395.83333333326 L50803200,42499.99999999993 L50889600,42604.16666666659 L50976000,42708.333333333256 L51062400,42812.49999999992 L51148800,42916.666666666584 L51235200,43020.83333333325 L51321600,43124.99999999991 L51408000,43229.16666666658 L51494400,43333.33333333324 L51580800,43437.499999999905 L51667200,43541.66666666657 L51753600,43645.833333333234 L51840000,43749.9999999999 L51926400,43854.16666666656 L52012800,43958.33333333323 L52099200,44062.49999999989 L52185600,44166.666666666555 L52272000,44270.83333333322 L52358400,44374.99999999988 L52444800,44479.16666666655 L52531200,44583.33333333321 L52617600,44687.499999999876 L52704000,44791.66666666654 L52790400,44895.833333333205 L52876800,44999.99999999987 L52963200,45104.16666666653 L53049600,45208.3333333332 L53136000,45312.49999999986 L53222400,45416.666666666526 L53308800,45520.83333333319 L53395200,45624.999999999854 L53481600,45729.16666666652 L53568000,45833.33333333318 L53654400,45937.49999999985 L53740800,46041.66666666651 L53827200,46145.833333333176 L53913600,46249.99999999984 L54000000,46354.166666666504 L54086400,46458.33333333317 L54172800,46562.49999999983 L54259200,46666.6666666665 L54345600,46770.83333333316 L54432000,46874.999999999825 L54518400,46979.16666666649 L54604800,47083.333333333154 L54691200,47187.49999999982 L54777600,47291.66666666648 L54864000,47395.83333333315 L54950400,47499.99999999981 L55036800,47604.166666666475 L55123200,47708.33333333314 L55209600,47812.4999999998 L55296000,47916.66666666647 L55382400,48020.83333333313 L55468800,48124.999999999796 L55555200,48229.16666666646 L55641600,48333.333333333125 L55728000,48437.49999999979 L55814400,48541.66666666645 L55900800,48645.83333333312 L55987200,48749.99999999978 L56073600,48854.166666666446 L56160000,48958.33333333311 L56246400,49062.499999999774 L56332800,49166.66666666644 L56419200,49270.8333333331 L56505600,49374.99999999977 L56592000,49479.16666666643 L56678400,49583.333333333096 L56764800,49687.49999999976 L56851200,49791.666666666424 L56937600,49895.83333333309 L57024000,49999.99999999975" fill="none" stroke="red"></path></g><g data-key="Advisor3"><path d="M0,0 L0,0 L15638400,55.55555555555556 L15724800,111.11111111111111 L15811200,166.66666666666669 L15897600,222.22222222222223 L15984000,277.77777777777777 L16070400,333.3333333333333 L16156800,388.88888888888886 L16243200,444.4444444444444 L16329600,499.99999999999994 L16416000,555.5555555555555 L16502400,611.1111111111111 L16588800,666.6666666666666 L16675200,722.2222222222222 L16761600,777.7777777777777 L16848000,833.3333333333333 L16934400,888.8888888888888 L17020800,944.4444444444443 L17107200,999.9999999999999 L17193600,1055.5555555555554 L17280000,1111.111111111111 L17366400,1166.6666666666667 L17452800,1222.2222222222224 L17539200,1277.777777777778 L17625600,1333.3333333333337 L17712000,1388.8888888888894 L17798400,1444.444444444445 L17884800,1500.0000000000007 L17971200,1555.5555555555563 L18057600,1611.111111111112 L18144000,1666.6666666666677 L18230400,1722.2222222222233 L18316800,1777.777777777779 L18403200,1833.3333333333346 L18489600,1888.8888888888903 L18576000,1944.444444444446 L18662400,2000.0000000000016 L18748800,2055.555555555557 L18835200,2111.1111111111127 L18921600,2166.6666666666683 L19008000,2222.222222222224 L19094400,2277.7777777777796 L19180800,2333.3333333333353 L19267200,2388.888888888891 L19353600,2444.4444444444466 L19440000,2500.0000000000023 L19526400,2555.555555555558 L19612800,2611.1111111111136 L19699200,2666.6666666666692 L19785600,2722.222222222225 L19872000,2777.7777777777806 L19958400,2833.333333333336 L20044800,2888.888888888892 L20131200,2944.4444444444475 L20217600,3000.000000000003 L20304000,3055.555555555559 L20390400,3111.1111111111145 L20476800,3166.66666666667 L20563200,3222.222222222226 L20649600,3277.7777777777815 L20736000,3333.333333333337 L20822400,3388.888888888893 L20908800,3444.4444444444484 L20995200,3500.000000000004 L21081600,3555.5555555555597 L21168000,3611.1111111111154 L21254400,3666.666666666671 L21340800,3722.2222222222267 L21427200,3777.7777777777824 L21513600,3833.333333333338 L21600000,3888.8888888888937 L21686400,3944.4444444444493 L21772800,4000.000000000005 L21859200,4055.5555555555607 L21945600,4111.111111111116 L22032000,4166.6666666666715 L22118400,4222.222222222227 L22204800,4277.777777777783 L22291200,4333.3333333333385 L22377600,4388.888888888894 L22464000,4444.44444444445 L22550400,4500.0000000000055 L22636800,4555.555555555561 L22723200,4611.111111111117 L22809600,4666.666666666672 L22896000,4722.222222222228 L22982400,4777.777777777784 L23068800,4833.333333333339 L23155200,4888.888888888895 L23241600,4944.444444444451 L23328000,5000.000000000006 L23414400,5055.555555555562 L23500800,5111.111111111118 L23587200,5166.666666666673 L23673600,5222.222222222229 L23760000,5277.777777777785 L23846400,5333.33333333334 L23932800,5388.888888888896 L24019200,5444.444444444452 L24105600,5500.000000000007 L24192000,5555.555555555563 L24278400,5611.111111111119 L24364800,5666.666666666674 L24451200,5722.22222222223 L24537600,5777.777777777786 L24624000,5833.333333333341 L24710400,5888.888888888897 L24796800,5944.4444444444525 L24883200,6000.000000000008 L24969600,6055.555555555564 L25056000,6111.1111111111195 L25142400,6166.666666666675 L25228800,6222.222222222231 L25315200,6277.7777777777865 L25401600,6333.333333333342 L25488000,6388.888888888898 L25574400,6444.444444444453 L25660800,6500.000000000009 L25747200,6555.555555555565 L25833600,6611.11111111112 L25920000,6666.666666666676 L26006400,6722.222222222232 L26092800,6777.777777777787 L26179200,6833.333333333343 L26265600,6888.888888888899 L26352000,6944.444444444454 L26438400,7000.00000000001 L26524800,7055.555555555566 L26611200,7111.111111111121 L26697600,7166.666666666677 L26784000,7222.222222222233 L26870400,7277.777777777788 L26956800,7333.333333333344 L27043200,7388.8888888889 L27129600,7444.444444444455 L27216000,7500.000000000011 L27302400,7555.555555555567 L27388800,7611.111111111122 L27475200,7666.666666666678 L27561600,7722.2222222222335 L27648000,7777.777777777789 L27734400,7833.333333333345 L27820800,7888.8888888889005 L27907200,7944.444444444456 L27993600,8000.000000000012 L28080000,8055.5555555555675 L28166400,8111.111111111123 L28252800,8166.666666666679 L28339200,8222.222222222234 L28425600,8277.777777777788 L28512000,8333.333333333343 L28598400,8388.888888888898 L28684800,8444.444444444453 L28771200,8500.000000000007 L28857600,8555.555555555562 L28944000,8611.111111111117 L29030400,8666.666666666672 L29116800,8722.222222222226 L29203200,8777.777777777781 L29289600,8833.333333333336 L29376000,8888.88888888889 L29462400,8944.444444444445 L29548800,9000 L29635200,9055.555555555555 L29721600,9111.11111111111 L29808000,9166.666666666664 L29894400,9222.222222222219 L29980800,9277.777777777774 L30067200,9333.333333333328 L30153600,9388.888888888883 L30240000,9444.444444444438 L30326400,9499.999999999993 L30412800,9555.555555555547 L30499200,9611.111111111102 L30585600,9666.666666666657 L30672000,9722.222222222212 L30758400,9777.777777777766 L30844800,9833.333333333321 L30931200,9888.888888888876 L31017600,9944.44444444443 L31104000,9999.999999999985" fill="none" stroke="red"></path></g></svg>