<svg font-family="monospace" font-size="20" height="3000" overflow="auto" viewBox="-200 -200 2400 3400" width="2000" xmlns="http://www.w3.org/2000/svg">
<rect fill="white" height="120%" width="120%" x="-20%" y="-20%"/>
<g class="stream monthly" data-h="264.6572939257569" data-percent="0.15" id="secret1DevFund" transform="translate(0,0)">
<line class="stream-border" stroke="#000" stroke-width="0.5" x1="0" x2="2000" y1="0" y2="0"/>
<text class="stream-id" text-anchor="start" x="2010" y="132.32864696287845">
secret1DevFund
</text>
<polyline class="stream-flow" fill="rgba(64,255,64,0.2)" points="" stroke="rgba(0,128,0,0.5)" stroke-width="0.5"/>
<text class="stream-amount" text-anchor="end" x="-10" y="132.32864696287845">
1500000
</text>
<rect class="stream-bg" fill="transparent" height="264.6572939257569" width="2000" x="0" y="0"/>
</g>
<g class="stream daily" data-h="265.6175956210247" data-percent="0.2" id="secret1Investors" transform="translate(0,264.6572939257569)">
<line class="stream-border" stroke="#000" stroke-width="0.5" x1="0" x2="2000" y1="0" y2="0"/>
<text class="stream-id" text-anchor="start" x="2010" y="132.80879781051235">
secret1Investors
</text>
<polyline class="stream-flow" fill="rgba(64,255,64,0.2)" points="" stroke="rgba(0,128,0,0.5)" stroke-width="0.5"/>
<text class="stream-amount" text-anchor="end" x="-10" y="132.80879781051235">
2000000
</text>
<rect class="stream-bg" fill="transparent" height="265.6175956210247" width="2000" x="0" y="0"/>
</g>
<g class="stream daily" data-h="262.7909420886611" data-percent="0.0897" id="secret1Founder1" transform="translate(0,530.2748895467817)">
<line class="stream-border" stroke="#000" stroke-width="0.5" x1="0" x2="2000" y1="0" y2="0"/>
<text class="stream-id" text-anchor="start" x="2010" y="131.39547104433055">
secret1Founder1
</text>
<polyline class="stream-flow" fill="rgba(64,255,64,0.2)" points="" stroke="rgba(0,128,0,0.5)" stroke-width="0.5"/>
<text class="stream-amount" text-anchor="end" x="-10" y="131.39547104433055">
897000
</text>
<rect class="stream-bg" fill="transparent" height="262.7909420886611" width="2000" x="0" y="0"/>
</g>
<g class="stream daily" data-h="262.7909420886611" data-percent="0.0897" id="secret1Founder2" transform="translate(0,793.0658316354427)">
<line class="stream-border" stroke="#000" stroke-width="0.5" x1="0" x2="2000" y1="0" y2="0"/>
<text class="stream-id" text-anchor="start" x="2010" y="131.39547104433055">
secret1Founder2
</text>
<polyline class="stream-flow" fill="rgba(64,255,64,0.2)" points="" stroke="rgba(0,128,0,0.5)" stroke-width="0.5"/>
<text class="stream-amount" text-anchor="end" x="-10" y="131.39547104433055">
897000
</text>
<rect class="stream-bg" fill="transparent" height="262.7909420886611" width="2000" x="0" y="0"/>
</g>
<g class="stream daily" data-h="259.7863646021646" data-percent="0.0437" id="secret1Founder3" transform="translate(0,1055.8567737241037)">
<line class="stream-border" stroke="#000" stroke-width="0.5" x1="0" x2="2000" y1="0" y2="0"/>
<text class="stream-id" text-anchor="start" x="2010" y="129.8931823010823">
secret1Founder3
</text>
<polyline class="stream-flow" fill="rgba(64,255,64,0.2)" points="" stroke="rgba(0,128,0,0.5)" stroke-width="0.5"/>
<text class="stream-amount" text-anchor="end" x="-10" y="129.8931823010823">
437000
</text>
<rect class="stream-bg" fill="transparent" height="259.7863646021646" width="2000" x="0" y="0"/>
</g>
<g class="stream daily" data-h="248.6006940690386" data-percent="0.0069" id="secret1Founder4" transform="translate(0,1315.6431383262684)">
<line class="stream-border" stroke="#000" stroke-width="0.5" x1="0" x2="2000" y1="0" y2="0"/>
<text class="stream-id" text-anchor="start" x="2010" y="124.3003470345193">
secret1Founder4
</text>
<polyline class="stream-flow" fill="rgba(64,255,64,0.2)" points="" stroke="rgba(0,128,0,0.5)" stroke-width="0.5"/>
<text class="stream-amount" text-anchor="end" x="-10" y="124.3003470345193">
69000
</text>
<rect class="stream-bg" fill="transparent" height="248.6006940690386" width="2000" x="0" y="0"/>
</g>
<g class="stream daily" data-h="245.78158990222602" data-percent="0.005" id="secret1Advisor1" transform="translate(0,1564.243832395307)">
<line class="stream-border" stroke="#000" stroke-width="0.5" x1="0" x2="2000" y1="0" y2="0"/>
<text class="stream-id" text-anchor="start" x="2010" y="122.89079495111301">
secret1Advisor1
</text>
<polyline class="stream-flow" fill="rgba(64,255,64,0.2)" points="" stroke="rgba(0,128,0,0.5)" stroke-width="0.5"/>
<text class="stream-amount" text-anchor="end" x="-10" y="122.89079495111301">
50000
</text>
<rect class="stream-bg" fill="transparent" height="245.78158990222602" width="2000" x="0" y="0"/>
</g>
<g class="stream daily" data-h="245.78158990222602" data-percent="0.005" id="secret1Advisor2" transform="translate(0,1810.025422297533)">
<line class="stream-border" stroke="#000" stroke-width="0.5" x1="0" x2="2000" y1="0" y2="0"/>
<text class="stream-id" text-anchor="start" x="2010" y="122.89079495111301">
secret1Advisor2
</text>
<polyline class="stream-flow" fill="rgba(64,255,64,0.2)" points="" stroke="rgba(0,128,0,0.5)" stroke-width="0.5"/>
<text class="stream-amount" text-anchor="end" x="-10" y="122.89079495111301">
50000
</text>
<rect class="stream-bg" fill="transparent" height="245.78158990222602" width="2000" x="0" y="0"/>
</g>
<g class="stream daily" data-h="221.18436058914997" data-percent="0.001" id="secret1Advisor3" transform="translate(0,2055.807012199759)">
<line class="stream-border" stroke="#000" stroke-width="0.5" x1="0" x2="2000" y1="0" y2="0"/>
<text class="stream-id" text-anchor="start" x="2010" y="110.59218029457499">
secret1Advisor3
</text>
<polyline class="stream-flow" fill="rgba(64,255,64,0.2)" points="" stroke="rgba(0,128,0,0.5)" stroke-width="0.5"/>
<text class="stream-amount" text-anchor="end" x="-10" y="110.59218029457499">
10000
</text>
<rect class="stream-bg" fill="transparent" height="221.18436058914997" width="2000" x="0" y="0"/>
</g>
<g class="stream daily" data-h="193.12955627950913" data-percent="0.0005" id="secret1Advisor4" transform="translate(0,2276.991372788909)">
<line class="stream-border" stroke="#000" stroke-width="0.5" x1="0" x2="2000" y1="0" y2="0"/>
<text class="stream-id" text-anchor="start" x="2010" y="96.56477813975457">
secret1Advisor4
</text>
<polyline class="stream-flow" fill="rgba(64,255,64,0.2)" points="" stroke="rgba(0,128,0,0.5)" stroke-width="0.5"/>
<text class="stream-amount" text-anchor="end" x="-10" y="96.56477813975457">
5000
</text>
<rect class="stream-bg" fill="transparent" height="193.12955627950913" width="2000" x="0" y="0"/>
</g>
<g class="stream immediate" data-h="250.23928854974292" data-percent="0.0085" id="secret1AdvisorR" transform="translate(0,2470.120929068418)">
<line class="stream-border" stroke="#000" stroke-width="0.5" x1="0" x2="2000" y1="0" y2="0"/>
<text class="stream-id" text-anchor="start" x="2010" y="125.11964427487146">
secret1AdvisorR
</text>
<polyline class="stream-flow" fill="rgba(64,255,64,0.2)" points="" stroke="rgba(0,128,0,0.5)" stroke-width="0.5"/>
<text class="stream-amount" text-anchor="end" x="-10" y="125.11964427487146">
85000
</text>
<rect class="stream-bg" fill="rgba(64,255,64,0.2" height="250.23928854974292" width="2000" x="0" y="0"/>
</g>
<g class="stream immediate" data-h="267.5002662925762" data-percent="0.37" id="secret1Remaining" transform="translate(0,2720.3602176181607)">
<line class="stream-border" stroke="#000" stroke-width="0.5" x1="0" x2="2000" y1="0" y2="0"/>
<text class="stream-id" text-anchor="start" x="2010" y="133.7501331462881">
secret1Remaining
</text>
<polyline class="stream-flow" fill="rgba(64,255,64,0.2)" points="" stroke="rgba(0,128,0,0.5)" stroke-width="0.5"/>
<text class="stream-amount" text-anchor="end" x="-10" y="133.7501331462881">
3700000
</text>
<rect class="stream-bg" fill="rgba(64,255,64,0.2" height="267.5002662925762" width="2000" x="0" y="0"/>
</g>
<g id="grid">
<rect fill="none" height="3000" stroke="red" stroke-width="2" width="2000" x="0" y="0"/>
<text text-anchor="start" x="0" y="-15">
T=0 seconds
</text>
<text text-anchor="end" x="2000" y="-15">
T=51840005 seconds
</text>
<line stroke="rgba(0,0,0,0.2)" x1="0" x2="0" y1="0" y2="3000"/>
<line stroke="rgba(0,0,0,0.2)" x1="50" x2="50" y1="0" y2="3000"/>
<line stroke="rgba(0,0,0,0.2)" x1="100" x2="100" y1="0" y2="3000"/>
<line stroke="rgba(0,0,0,0.2)" x1="150" x2="150" y1="0" y2="3000"/>
<line stroke="rgba(0,0,0,0.2)" x1="200" x2="200" y1="0" y2="3000"/>
<line stroke="rgba(0,0,0,0.2)" x1="250" x2="250" y1="0" y2="3000"/>
<line stroke="rgba(0,0,0,0.2)" x1="300" x2="300" y1="0" y2="3000"/>
<line stroke="rgba(0,0,0,0.2)" x1="350" x2="350" y1="0" y2="3000"/>
<line stroke="rgba(0,0,0,0.2)" x1="400" x2="400" y1="0" y2="3000"/>
<line stroke="rgba(0,0,0,0.2)" x1="450" x2="450" y1="0" y2="3000"/>
<line stroke="rgba(0,0,0,0.2)" x1="500" x2="500" y1="0" y2="3000"/>
<line stroke="rgba(0,0,0,0.2)" x1="550" x2="550" y1="0" y2="3000"/>
<line stroke="rgba(0,0,0,0.2)" x1="600" x2="600" y1="0" y2="3000"/>
<line stroke="rgba(0,0,0,0.2)" x1="650" x2="650" y1="0" y2="3000"/>
<line stroke="rgba(0,0,0,0.2)" x1="700" x2="700" y1="0" y2="3000"/>
<line stroke="rgba(0,0,0,0.2)" x1="750" x2="750" y1="0" y2="3000"/>
<line stroke="rgba(0,0,0,0.2)" x1="800" x2="800" y1="0" y2="3000"/>
<line stroke="rgba(0,0,0,0.2)" x1="850" x2="850" y1="0" y2="3000"/>
<line stroke="rgba(0,0,0,0.2)" x1="900" x2="900" y1="0" y2="3000"/>
<line stroke="rgba(0,0,0,0.2)" x1="950" x2="950" y1="0" y2="3000"/>
<line stroke="rgba(0,0,0,0.2)" x1="1000" x2="1000" y1="0" y2="3000"/>
<line stroke="rgba(0,0,0,0.2)" x1="1050" x2="1050" y1="0" y2="3000"/>
<line stroke="rgba(0,0,0,0.2)" x1="1100" x2="1100" y1="0" y2="3000"/>
<line stroke="rgba(0,0,0,0.2)" x1="1150" x2="1150" y1="0" y2="3000"/>
<line stroke="rgba(0,0,0,0.2)" x1="1200" x2="1200" y1="0" y2="3000"/>
<line stroke="rgba(0,0,0,0.2)" x1="1250" x2="1250" y1="0" y2="3000"/>
<line stroke="rgba(0,0,0,0.2)" x1="1300" x2="1300" y1="0" y2="3000"/>
<line stroke="rgba(0,0,0,0.2)" x1="1350" x2="1350" y1="0" y2="3000"/>
<line stroke="rgba(0,0,0,0.2)" x1="1400" x2="1400" y1="0" y2="3000"/>
<line stroke="rgba(0,0,0,0.2)" x1="1450" x2="1450" y1="0" y2="3000"/>
<line stroke="rgba(0,0,0,0.2)" x1="1500" x2="1500" y1="0" y2="3000"/>
<line stroke="rgba(0,0,0,0.2)" x1="1550" x2="1550" y1="0" y2="3000"/>
<line stroke="rgba(0,0,0,0.2)" x1="1600" x2="1600" y1="0" y2="3000"/>
<line stroke="rgba(0,0,0,0.2)" x1="1650" x2="1650" y1="0" y2="3000"/>
<line stroke="rgba(0,0,0,0.2)" x1="1700" x2="1700" y1="0" y2="3000"/>
<line stroke="rgba(0,0,0,0.2)" x1="1750" x2="1750" y1="0" y2="3000"/>
<line stroke="rgba(0,0,0,0.2)" x1="1800" x2="1800" y1="0" y2="3000"/>
<line stroke="rgba(0,0,0,0.2)" x1="1850" x2="1850" y1="0" y2="3000"/>
<line stroke="rgba(0,0,0,0.2)" x1="1900" x2="1900" y1="0" y2="3000"/>
<line stroke="rgba(0,0,0,0.2)" x1="1950" x2="1950" y1="0" y2="3000"/>
<line stroke="rgba(0,0,0,0.2)" x1="2000" x2="2000" y1="0" y2="3000"/>
<line stroke="rgba(0,0,0,0.2)" x1="2050" x2="2050" y1="0" y2="3000"/>
<line stroke="rgba(0,0,0,0.2)" x1="2100" x2="2100" y1="0" y2="3000"/>
<line stroke="rgba(0,0,0,0.2)" x1="2150" x2="2150" y1="0" y2="3000"/>
<line stroke="rgba(0,0,0,0.2)" x1="2200" x2="2200" y1="0" y2="3000"/>
<line stroke="rgba(0,0,0,0.2)" x1="2250" x2="2250" y1="0" y2="3000"/>
<line stroke="rgba(0,0,0,0.2)" x1="2300" x2="2300" y1="0" y2="3000"/>
<line stroke="rgba(0,0,0,0.4)" x1="0" x2="0" y1="0" y2="3000"/>
<line stroke="rgba(0,0,0,0.4)" x1="300" x2="300" y1="0" y2="3000"/>
<line stroke="rgba(0,0,0,0.4)" x1="600" x2="600" y1="0" y2="3000"/>
<line stroke="rgba(0,0,0,0.4)" x1="900" x2="900" y1="0" y2="3000"/>
<line stroke="rgba(0,0,0,0.4)" x1="1200" x2="1200" y1="0" y2="3000"/>
<line stroke="rgba(0,0,0,0.4)" x1="1500" x2="1500" y1="0" y2="3000"/>
<line stroke="rgba(0,0,0,0.4)" x1="1800" x2="1800" y1="0" y2="3000"/>
</g>
</svg>